<svg width="32" height="33" viewBox="0 0 32 33" fill="none" xmlns="http://www.w3.org/2000/svg">
<path d="M16 0.00524832C20.2435 0.00524814 24.3131 1.69096 27.3137 4.69154C30.3143 7.69212 32 11.7618 32 16.0052C32 20.2487 30.3143 24.3184 27.3137 27.319C24.3131 30.3195 20.2435 32.0052 16 32.0052C11.7565 32.0052 7.68687 30.3195 4.68629 27.319C1.68571 24.3184 -5.13895e-07 20.2487 -6.99382e-07 16.0052C-8.8487e-07 11.7618 1.68571 7.69212 4.68629 4.69154C7.68687 1.69096 11.7565 0.00524851 16 0.00524832ZM9 15.0052C8.73478 15.0052 8.48043 15.1106 8.29289 15.2981C8.10536 15.4857 8 15.74 8 16.0052C8 16.2705 8.10536 16.5248 8.29289 16.7124C8.48043 16.8999 8.73478 17.0052 9 17.0052L20.586 17.0052L16.292 21.2972C16.1042 21.485 15.9987 21.7397 15.9987 22.0052C15.9987 22.2708 16.1042 22.5255 16.292 22.7132C16.4798 22.901 16.7344 23.0065 17 23.0065C17.2656 23.0065 17.5202 22.901 17.708 22.7132L23.708 16.7132C23.8011 16.6204 23.875 16.51 23.9254 16.3885C23.9758 16.267 24.0018 16.1368 24.0018 16.0052C24.0018 15.8737 23.9758 15.7435 23.9254 15.622C23.875 15.5005 23.8011 15.3901 23.708 15.2972L17.708 9.29725C17.5202 9.10948 17.2655 9.00399 17 9.00399C16.7344 9.00399 16.4798 9.10948 16.292 9.29725C16.1042 9.48502 15.9987 9.7397 15.9987 10.0052C15.9987 10.2708 16.1042 10.5255 16.292 10.7132L20.586 15.0052L9 15.0052Z" fill="#5E5E5E"/>
</svg>
