<svg id="Lager_1" data-name="Lager 1" xmlns="http://www.w3.org/2000/svg" xmlns:xlink="http://www.w3.org/1999/xlink" viewBox="0 0 246 568"><defs><style>.cls-1,.cls-3{fill:none;}.cls-2{clip-path:url(#clip-path);}.cls-3{stroke:#282828;stroke-miterlimit:10;}.cls-4{clip-path:url(#clip-path-2);}</style><clipPath id="clip-path"><rect class="cls-1" x="33.3" y="1148.51" width="376" height="76"/></clipPath><clipPath id="clip-path-2"><rect class="cls-1" width="246" height="568"/></clipPath></defs><title>Rityta 2 kopia 2</title><g class="cls-2"><path class="cls-3" d="M560.94,575.5c7.56,49.42,43.69,90.25,48.84,139.43,5.09,48.49-16.5,97.92-23.36,145.3-7.76,53.67,6.24,110.45,13,163.68,5.91,46.46,9.65,91.31,6.19,138-37.63,3.27-72.5,16.7-109.75,20.48-60.66,6.16-122.52-2.7-183.29-2.8-48-.08-92.31,17.5-137.45,31.79-55.16,17.46-101.4,7.94-157.2-.41-7.49-54.9-41.36-103.84-45.56-158.91C-31,1008-9.87,966.35-4.43,923.3,1.7,874.77-20.66,833-37.28,788.89c-8.56-22.69-15.63-45.48-14.91-70,.79-27.25,9.9-53.58,17.17-79.62,58.16-8.21,111.12-39.12,169.43-45.1,46.39-4.76,90.64,14.66,136.61,15.89,48.16,1.29,91.6-23.23,136.05-38.2C460.91,553.73,506.83,566.26,560.94,575.5Z"/></g><g class="cls-4"><path class="cls-3" d="M770.75-14.72c-65.29-3.09-122.63-47.77-188.69-43-60.78,4.42-115.23,40.19-176.39,42-60.91,1.83-115.48-33.21-174.76-41.66-67.1-9.57-125,33.27-190,40.27C38.17,51.86-1.77,115.72,2.82,185.14,6.54,241.3,38.13,291.73,39.92,348.2,41.82,408.31,10.53,463.71,3,522.51-5.54,589,32.41,648.05,38.62,712.86,99.5,716.64,146.55,769,208.8,763.18c67.08-6.24,127.3-45.44,194.76-49.15,34.55-1.9,70,2.55,104.4,5.25,39.78,3.12,79.57,6.81,119.45,8.39,24.69,1,49.31.8,73.71-3.42,22.81-4,44.64-8.48,67.89-9.36,2.24-48.07,30.93-86.76,28.49-135.76-3.84-76.8-26.37-152-27.9-229-1.18-59.33,27-114.35,34.21-172.53C812.05,111.09,776.54,50.46,770.75-14.72Z"/><path class="cls-3" d="M795.79,614.83C756,615.92,716.56,620.36,677,623.9c-31.63,2.83-64.42,6.6-96.09,2.72-67.39-8.27-130.14-37.79-198.31-41.75-50.62-2.94-98.16-22.13-148.5-26.5-35.12-3-71.46.1-106.69.68q-62.53,1-125,2.24"/><path class="cls-3" d="M797.23,603.27c-40.61,1-81,5.39-121.43,8.84-31.86,2.73-65,6.62-96.91,2.66-67.11-8.34-129.07-39.77-197.08-43.12-50.53-2.49-96.65-25.26-146.8-29.24-35.42-2.81-71.91.36-107.38,1.48-42,1.32-84.1,3-126.17,3.28"/><path class="cls-3" d="M797.85,589.85c-40.94,1-81.66,5.22-122.45,8.57-31.88,2.62-65.11,6.53-97,2.6-67-8.24-128.54-40.41-196.49-43.73-50.45-2.47-96.67-24.9-146.77-29-35.36-2.92-71.82.33-107.23,1.42-42,1.28-84,2.69-126,3.12"/><path class="cls-3" d="M797.22,574.38c-40.59.94-81,4.9-121.44,8.06-31.82,2.48-65,6.31-96.81,2.35-66.71-8.31-127.88-39.76-195.45-43.88-50.37-3.07-98-21.5-148.19-25.87-35.14-3.07-71.4.11-106.63.86-41.7.88-83.4,1.77-125.11,2.31"/><path class="cls-3" d="M795.79,557.07c-38.8.82-77.43,4.25-116.12,7.11-33.33,2.47-68.11,6.52-101.41,2-65.32-8.87-125.39-39.57-191.69-43.45-50.15-2.93-99-16.15-149-20.25-35.12-2.87-71-.31-106.25,0-41.7.35-83.41.56-125.11,1"/><path class="cls-3" d="M793.71,538.27c-38.33.69-76.5,3.8-114.74,6.37-33.18,2.23-67.74,6-100.84,1.19-63.82-9.2-122.6-38.92-187.48-42.65C339.15,500.23,288,492.94,236.51,490c-75.08-4.28-151.7-1.83-226.9-1.34"/><path class="cls-3" d="M791.12,518.31c-37.27.52-74.42,3.22-111.62,5.44-32.58,2-66.48,5.37-99,.74-62.9-9-120.95-39-184.94-42-127-5.84-254.95-8.64-382.07-8.77"/><path class="cls-3" d="M788.17,497.55c-36.46.33-72.82,2.64-109.22,4.5-30.92,1.58-62.89,4.43-93.7.43-62.59-8.11-120.45-39.43-184.1-41.33-54.95-1.64-109.71,4.65-164.63,4.94-73,.38-145.74-6.53-218.7-7.28"/><path class="cls-3" d="M785,476.3c-64.11.28-131,11.27-194.86,3.74-62.28-7.35-119.95-39.65-183.2-40.64-56.22-.89-111.47,12.54-167.49,14.87-72.4,3-144.88-8.94-217.22-10.42"/><path class="cls-3" d="M781.77,454.93c-62.72,0-128.38,9.8-190.77,2-60.36-7.5-116.83-39.21-178.26-39.29-57.62-.08-113.11,20-170.26,24.6C170.92,448.06,98.1,431.1,26.57,428.89"/><path class="cls-3" d="M778.62,433.76c-61.4-.3-125.85,8.41-186.87.47-58.45-7.6-113.85-38.77-173.44-38-60.39.74-117.16,27.9-176.83,34.25-31.84,3.38-64.68-1.5-96.32-5.2C107,420.8,69,415.52,30.63,414"/><path class="cls-3" d="M775.71,413.14c-59.15-.5-120.61,6.31-179.45-.46-58.42-6.72-113.59-38.27-173-37.11-63.12,1.23-120.81,35.41-183,43-31.83,3.88-65.37-2.35-96.85-6.78-36.32-5.12-72.53-10.91-109.21-12.65"/><path class="cls-3" d="M773.19,393.41c-57.06-.6-116,4.71-172.81-1.08-58.38-6-113.64-38.13-172.88-36.53-64.24,1.73-121.56,40.63-184.47,50-31.82,4.74-65.48-2-96.92-7.07-36.24-5.81-72.31-12.43-109-14.33"/><path class="cls-3" d="M771.21,374.9c-55.89-.58-113.62,3.82-169.28-1.65C544,367.56,489.3,336,430.58,337.56c-65.75,1.74-122.91,45.32-187.11,55.34-31.62,4.93-65.19-2.17-96.33-7.68-35.91-6.34-71.58-13.55-108.06-15.44"/><path class="cls-3" d="M769.93,358c-55.15-.43-112.21,3.4-167.13-1.82-57.73-5.49-112-36.14-170.53-35-66.84,1.28-123.49,48.53-188.67,58.39-31.57,4.77-65-2.31-96-8.13C111.84,364.64,76.39,357,40,355.31"/><path class="cls-3" d="M769.55,342.89c-54.91-.15-112.1,3.57-166.76-1.83-57.5-5.67-112.19-35.18-170.45-34.25-66.55,1.06-124.07,47.73-189,57.9-31.54,4.94-65.06-2.31-96.08-7.93-35.79-6.48-71.33-13.64-107.73-15.63"/><path class="cls-3" d="M770.47,328.53c-30.05,0-60.08-.47-90.13-.93C654,327.21,627.2,328.68,601,326c-56.83-5.91-112.62-32.35-170.11-31.27-65.59,1.22-124.69,43.7-188.87,53.83-31.55,5-65-2-96.23-7.11-35.87-5.82-71.57-12.16-107.9-14.25"/><path class="cls-3" d="M772.36,314c-30.94,0-61.85-.81-92.78-1.56-28-.68-56.3.59-84.11-2.24-55.66-5.65-111-26.33-167.22-25.66-65.34.77-126.23,38.5-190.61,47.17-31.27,4.2-64.41-2.23-95.4-6.48-35.56-4.88-71-10.08-106.92-12"/><path class="cls-3" d="M775,299.45c-61-.1-123.75,0-184.53-5-55.11-4.53-110.46-19.4-165.9-18.78-64.46.73-126.17,31.14-190,38.23-31.45,3.5-64.22-1.76-95.5-5.09C103.42,305,67.82,301.05,32,299.5"/><path class="cls-3" d="M778.32,284.78c-65.06-.34-130.88-2.77-195.83-6.42-53.86-3-108.28-11.42-162.27-10.6-63,.95-124.49,22.39-187.16,27.62-67.51,5.64-137.36-7.61-205-9.62"/><path class="cls-3" d="M782,270.06c-68.14-.67-136.19-6.26-204.34-7.77-54.06-1.19-108.29-2.12-162.36-1.55-61.63.66-122.69,13.1-184.23,16-68.79,3.22-138.4-3.73-207.25-4.66"/><path class="cls-3" d="M786,255.3c-71.28-1-142.26-10.12-213.58-9.31-54.17.61-108,7.31-162.21,8-130.27,1.62-260.41,3.9-390.73,4.39"/><path class="cls-3" d="M790.05,240.54c-75.4-1.45-151.32-14.6-226.73-10.82-53.05,2.66-105.06,16.73-158.23,17.46-62,.87-124.39-5.2-186.35-7.83-67.72-2.88-135.81,3.93-203.52,5.32"/><path class="cls-3" d="M794,225.8c-43.31-1-86.47-4.88-129.65-8.21-36.22-2.79-73.48-7.26-109.79-4-51.94,4.69-102,25.77-154.3,26.52-61.16.86-122.6-14-183.4-19.11-68-5.69-137.58,7.49-205.61,9.9"/><path class="cls-3" d="M797.62,211.1c-44.9-1.17-89.65-5.48-134.4-9.16-37-3.06-76-8.85-113.13-4.63-52.39,6-101.19,33.78-154.22,34.86-60.39,1.24-120.88-21.7-180.52-28.94C147.1,195,76.05,213.91,7.76,217.12"/><path class="cls-3" d="M800.77,196.46c-48.12-1.34-96-6.33-144-10.44-35.81-3.07-74.34-9.3-110.22-4.87-53,6.54-100.42,41.15-154.28,42.18-61.4,1.17-121.39-29.26-181.67-37.76-31.92-4.5-64.83.81-96.55,5.09C77.76,195.56,41.61,201.27,5,203.24"/><path class="cls-3" d="M803.25,181.9c-49.55-1.38-98.91-6.77-148.25-11.15-36.36-3.23-76-10.06-112.45-5.26-53.25,7-98.55,46.29-152.87,47.44-62,1.31-120.49-34.83-181-44-31.87-4.84-64.93,1-96.49,6-36.26,5.69-72.32,12.36-109,14.37"/><path class="cls-3" d="M804.84,167.45c-50.46-1.32-100.73-7-151-11.59-36.71-3.34-76.8-10.31-113.63-5.63-53.7,6.81-97,49.32-151.9,50.5-62.81,1.36-119.34-38.59-180.51-47.54-67.81-9.93-137.75,18.74-205.37,22"/><path class="cls-3" d="M805.34,153.12c-50.71-1.07-101.22-7.05-151.68-11.74-36.83-3.43-76.74-10.19-113.72-5.87-54,6.32-96.44,49.82-151.65,51-63.05,1.36-118.86-39.24-180.24-48-68-9.74-137.2,19.32-205,22.34"/><path class="cls-3" d="M804.51,138.93c-50.22-.79-100.22-7.19-150.15-12.21-36.65-3.68-76.24-10.4-113.09-6.13-54.08,6.26-97.12,49.29-152.37,50.56-62.89,1.44-118.7-39-179.89-47.88-68-9.87-136.5,20-204.17,23"/><path class="cls-3" d="M802.68,124.83c-47.83-.68-95.4-7.23-142.87-12.58-38.14-4.29-79.44-11.91-117.86-7-53.64,6.86-97.06,48.2-152,49.63-62,1.62-117.34-37.81-177.48-47.21C144,97,75.21,128.27,7.14,131.56"/><path class="cls-3" d="M800,110.82c-46.65-.72-92.94-7.85-139.15-13.74-37.4-4.77-77.77-12.53-115.55-7.88-54.16,6.67-98.58,47.36-153.92,48.83-61.79,1.63-117-37.38-177-46.77C146.18,80.56,77.93,113,10.18,116.63"/><path class="cls-3" d="M796.77,96.87c-45.72-.87-90.94-8.79-136.09-15.35C624.11,76.2,584.62,68.16,547.58,73c-54,7.06-99.16,46.37-154.42,47.7-62.27,1.5-117.73-37.6-178.29-46.51C147.48,64.29,81,97.63,14.27,101.69"/><path class="cls-3" d="M793.05,83c-44.6-1.1-88.51-9.87-132.4-17.18C626,60,589.14,52.21,553.93,56.15,498.42,62.36,451.58,101.49,395.08,103c-62.8,1.65-118.4-38-179.63-46.15C148.9,48,84.2,82.22,18.5,86.76"/><path class="cls-3" d="M789.08,69.1c-43.38-1.36-85.83-11-128.32-19.14-32.43-6.19-67-13.87-100.16-10.87-57.09,5.17-105.66,44.73-163.49,46.1C335.22,86.64,280.24,48.68,220.05,40,153.14,30.27,88.68,66.47,22.83,71.6"/><path class="cls-3" d="M785,55.23C742.9,53.62,702,43,661,34.07c-31.52-6.85-65-14.88-97.48-11.61C506.4,28.22,457,65.82,399.11,67.31c-60.9,1.57-115.37-34.9-174.46-44.16C157.25,12.59,93.44,50.84,27.34,56.57"/><path class="cls-3" d="M781.14,41.35C709,38.11,638.63-1.6,566.11,6,509,11.91,459,48.35,401,49.71,339.56,51.16,284.91,14.49,225.1,6,158.46-3.56,96.57,35.43,31.39,41.61"/><path class="cls-3" d="M777.56,27.44C708.18,24,642.15-16.93,572.26-10.67,513.67-5.42,462,30.81,402.74,32.37,340.74,34,285.7-3.06,225.23-11,159.51-19.65,99,20.13,34.82,26.65"/><path class="cls-3" d="M774.5,13.47C707.47,9.9,645.45-32,577.83-27c-60,4.46-113.2,41.14-173.69,42.66C343,17.18,288.54-18.43,229.05-26.9,162.44-36.39,102.5,5.06,37.73,12"/><path class="cls-3" d="M772.17-.57C706.34-4,647-47.47,580.5-42.65,520-38.26,466.07-2.08,405.16-.44S289.68-34,230.3-42.48C163.51-52,105-9.74,40.15-2.68"/><path class="cls-3" d="M56.13-19c-3,69-42.07,133.6-37.42,203.1,3.8,56.71,35.33,108,37,165,1.71,59.53-28.52,114.87-36,173.14-8.51,65.86,27,127.37,33.78,191.84"/><path class="cls-3" d="M71.17-22.16c-3,68.75-40.35,133.54-36.42,202.66C38.09,239,70.19,292.13,71.63,350.86c1.42,58-26.35,112.28-33.88,169.09C28.91,586.61,60.83,651.42,67.41,717"/><path class="cls-3" d="M86.07-26.34C83.18,43.54,46.5,110,51.31,180.29c4,59.13,35,113.44,36.54,172.9,1.42,56.28-24,109.29-31.17,164.43-8.83,68,18.32,136.27,24.08,203.65"/><path class="cls-3" d="M100.87-31.2C98.15,40,62.56,108.14,68,179.72c4.52,60.07,34.8,115.76,36.15,176.23C105.36,411.69,82,464.38,75.8,519.23c-7.74,68.56,13.48,139,17.82,207.28"/><path class="cls-3" d="M115.62-36.44C113.17,34.81,79.67,103.41,84.44,175c4.17,62.66,34.56,121,36.1,184,1.34,55-20.16,107.34-25.11,161.69-6.36,69.94,8.09,141.79,10.72,211.7"/><path class="cls-3" d="M130.35-41.76c-2.17,72-34,141.65-29.22,214,4.27,64.57,34.22,125.11,35.83,190,1.29,52.39-16.62,102.6-21.18,154.4-6.46,73.32,1.94,148.59,2.74,222.06"/><path class="cls-3" d="M145.12-46.86c-2,73.34-32.74,144.71-27.26,218.33,4.89,65.67,33.92,127.73,35.45,193.79C154.52,416.91,139,466.71,135.57,518c-5,75.25-3.61,151.5-4.69,226.9"/><path class="cls-3" d="M160-51.42c-1.75,73.3-30.49,144.86-25.72,218.4,4.43,68.16,33.66,132.69,35.44,201.16,1.31,50.93-12.13,100.47-14.53,151.12-3.65,77.14-9,154.29-11.73,231.46"/><path class="cls-3" d="M174.93-55.17c-1.69,73.14-28.6,144.72-24.45,218,4,70.35,33.68,137.1,35.36,207.7,1.18,49.26-9.53,97.52-11.47,146.58-3.16,79.83-13.94,159-18.09,238.75"/><path class="cls-3" d="M190.05-57.79c-1.79,74-28.16,146.91-23.26,221.13,4.66,70.68,33.52,138.12,35.12,209.13,1.08,47.82-7.55,95-9.16,142.66C190,597.29,174.65,678.05,169.66,760"/><path class="cls-3" d="M205.38-59c-2.09,74.58-28.27,148.6-22.62,223.37,5.33,70.56,33.48,138.19,34.93,209.15,1,47.81-6.41,95.24-7.69,143-2.22,82.88-21.24,163.67-26.29,246.29"/><path class="cls-3" d="M221-58.48C218.61,16,192.76,90.2,198.4,164.9c5.31,70.39,33.6,137.77,34.94,208.59.91,47.82-6.2,95.31-7.42,143.06-2.12,83.34-22.83,164.19-27.27,247.24"/><path class="cls-3" d="M236.77-56.4c-2.45,73.94-27.49,147.5-22.46,221.62,4.72,69.76,33.95,136,35.34,206.13.95,48.49-7.7,96.36-9,144.74-2.2,82.93-20.82,163.73-25.76,246.4"/><path class="cls-3" d="M252.77-53c-2.49,73.92-27.29,147.72-22.05,221.81,4.77,67.34,34.57,130.69,35.86,198.5,1,50.59-10.12,100.22-11.79,150.64C252.1,599,236.73,678.62,232,759.56"/></g></svg>