<svg id="Lager_1" data-name="Lager 1" xmlns="http://www.w3.org/2000/svg" xmlns:xlink="http://www.w3.org/1999/xlink" viewBox="0 0 773 507.72"><defs><style>.cls-1,.cls-4{fill:none;}.cls-2{clip-path:url(#clip-path);}.cls-3{fill:#282828;}.cls-4{stroke:#282828;stroke-miterlimit:10;}</style><clipPath id="clip-path"><rect class="cls-1" y="-1.28" width="773" height="509"/></clipPath></defs><title>Rityta 2</title><g class="cls-2"><path class="cls-3" d="M667.89,730.13a153.77,153.77,0,0,1-34.31-3.7c-31.3-7.1-60.82-22.49-89.37-37.38-33.61-17.52-68.37-35.64-106.11-40.22-37.22-4.63-74.28,4.48-110.11,13.29-26.81,6.59-54.53,13.4-82.17,14.44-46.8,1.72-88.89-20.13-129.61-41.25C86.89,620.1,56.58,604.38,24.59,597.4l-.41-.09,0-.41c1.32-37.52-4.51-75.74-10.14-112.7-7.37-48.39-15-98.41-6.62-147.3,5.54-32.7,18.07-63.48,30.19-93.25C51.57,209.42,66,174,69.77,135.62c4.17-41.13-2.68-82.51-9.3-122.53-4.94-29.82-10-60.66-10.56-91.19-.9-51.73,17-99.26,34.41-145.21,12.41-32.89,25.25-66.89,31.2-102.32l.07-.42h1.91c30.83,0,59.62-10.3,87.48-20.27,39.61-14.17,77-27.56,120.2-14.39,30.78,9.38,60.21,24.87,88.67,39.85,36.69,19.31,74.63,39.27,115.71,46.23,48.51,8.16,98.89,8.81,147.62,9.43,35.61.46,72.44.93,108.2,4.34,30,2.83,58.9,11.48,86.82,19.84,22.92,6.86,46.61,14,70.81,17.8l.44.07,0,.45c-1.3,29.47,3.09,56.65,7.33,82.93,5.42,33.55,11,68.25,4.39,107.15C948.76,5,939,42.92,929.55,79.56c-13.33,51.7-27.12,105.16-31.69,159-3.46,40.06,2.53,80.1,8.32,118.82,5.05,33.74,10.27,68.64,9.22,103.46-1.38,47.79-17.52,92.67-33.12,136.08-11.93,33.17-24.26,67.46-30,102.92l-.07.44-.44,0c-32-1-64,7.08-95,14.93C727.71,722.57,697.92,730.13,667.89,730.13ZM417.33,646.58a168.62,168.62,0,0,1,20.89,1.26c37.92,4.6,72.76,22.76,106.45,40.33,28.49,14.85,58,30.22,89.13,37.28,41.36,9.41,82.73-1.07,122.73-11.22,30.9-7.83,62.84-15.93,94.84-15,5.78-35.4,18.07-69.6,30-102.67,15.58-43.33,31.69-88.14,33.06-135.77,1-34.73-4.17-69.58-9.21-103.29-5.8-38.77-11.8-78.87-8.32-119,4.57-53.93,18.37-107.43,31.71-159.17C938,42.69,947.78,4.84,954.17-32.77c6.61-38.75,1-73.36-4.39-106.83-4.24-26.2-8.61-53.28-7.37-82.69-24.11-3.87-47.69-10.93-70.5-17.76-27.87-8.35-56.69-17-86.62-19.8-35.72-3.41-72.53-3.88-108.12-4.34-48.77-.62-99.19-1.27-147.78-9.45-41.23-7-79.24-27-116-46.33-28.42-14.95-57.81-30.42-88.5-39.77-42.87-13.08-80.13.26-119.57,14.37-28.26,10.11-57.52,20.6-88.88,20.33-6,35.37-18.8,69.28-31.19,102.08C67.93-177.09,50-129.66,50.91-78.12c.52,30.46,5.61,61.26,10.54,91.05C68.09,53,74.94,94.46,70.76,135.72c-3.81,38.55-18.24,74-32.2,108.3-12.1,29.72-24.61,60.46-30.13,93-8.35,48.73-.74,98.67,6.62,147,5.62,36.87,11.43,75,10.16,112.47,32,7,62.21,22.73,91.46,37.91,40.6,21.06,82.58,42.85,129.12,41.13,27.53-1,55.2-7.84,82-14.41C357,654,387,646.58,417.33,646.58Z"/><path class="cls-3" d="M771.74,710l-1-.12C793.23,529.77,811.38,378.21,826.89,224,834,153,843.81,81.11,853.33,11.63c11.66-85,23.71-173,30.77-260.26l1,.08C878-161.25,866-73.29,854.32,11.77,844.8,81.24,835,153.08,827.89,224.14,812.37,378.32,794.22,529.89,771.74,710Z"/><path class="cls-3" d="M756.16,714.47l-1-.1c3.32-33.56,6.31-67.76,9.2-100.83,4.45-50.9,9-103.53,15-155.06,4.41-38.69,10.94-77.64,17.25-115.31,6.59-39.36,13.41-80.05,17.81-120.48,4.72-43.39,9.82-87.43,14.75-130,6.17-53.2,12.54-108.22,18.22-162.46,3.31-31.16,8.84-62.2,14.19-92.23,5.21-29.25,10.6-59.5,13.91-89.76l1,.11c-3.32,30.29-8.71,60.56-13.93,89.83-5.34,30-10.87,61-14.18,92.16C842.67-15.44,836.3,39.58,830.14,92.79c-4.93,42.58-10,86.62-14.75,130C811,263.26,804.16,304,797.56,343.33c-6.3,37.66-12.83,76.6-17.23,115.26-5.93,51.53-10.53,104.15-15,155C762.47,646.7,759.48,680.91,756.16,714.47Z"/><path class="cls-3" d="M740.93,719.09l-1-.08c2.58-34.77,3.53-70.43,4.44-104.93,1.37-51.3,2.78-104.35,9.57-155.81,5.14-38.83,14.53-77.39,23.61-114.67,9.66-39.7,19.66-80.74,24.55-122.22,7.22-62.3,12.39-126,17.39-187.53,2.85-35.17,5.8-71.54,9.11-107.24,3.21-34.37,11.78-66.86,20.07-98.29,7-26.66,14.3-54.22,18.3-82.88l1,.14c-4,28.71-11.29,56.31-18.33,83-8.28,31.38-16.84,63.83-20,98.12-3.3,35.7-6.25,72.06-9.11,107.23-5,61.58-10.16,125.25-17.39,187.56-4.9,41.54-14.9,82.62-24.57,122.35-9.07,37.25-18.45,75.78-23.58,114.56-6.79,51.41-8.2,104.43-9.57,155.71C744.46,648.61,743.51,684.3,740.93,719.09Z"/><path class="cls-3" d="M725.34,723.49l-1,0c1.8-35,.79-71.35-.19-106.47-1.52-54.56-3.1-111,5.76-164.59,6.2-37.36,17.73-73.89,28.88-109.22,12.5-39.6,25.43-80.55,30.9-122.87,8.1-61.38,11-125,13.8-186.63,1.57-34.46,3.19-70.09,5.7-104.72,2.75-38.42,14.37-71.88,25.6-104.25,9-25.89,18.28-52.67,23.13-82.08l1,.16C854-227.74,844.73-200.92,835.73-175c-11.21,32.3-22.8,65.71-25.54,104-2.51,34.61-4.13,70.23-5.7,104.68-2.8,61.6-5.7,125.3-13.8,186.72-5.49,42.41-18.43,83.4-30.94,123-11.15,35.29-22.66,71.79-28.85,109.09-8.85,53.52-7.27,109.88-5.75,164.39C726.13,652.08,727.15,688.42,725.34,723.49Z"/><path class="cls-3" d="M709.67,727.48l-1,0c1.19-35.47-1.6-72.64-4.29-108.59-4.16-55.57-8.46-113,1.52-166.75,7.06-38.06,21-74.47,34.5-109.69,15.1-39.39,30.71-80.13,36.65-123.23,8.56-61.24,9.62-125.66,10.64-188,.57-34.87,1.17-70.92,3.08-105.66,2-35.61,6.75-66,23.72-98.89l3-5.85c13.9-27,24.87-48.34,31-80.68l1,.18c-6.13,32.49-17.14,53.88-31.07,81l-3,5.85c-16.89,32.68-21.65,63-23.61,98.48-1.91,34.73-2.51,70.77-3.08,105.62C787.67,93.57,786.6,158,778,219.32c-6,43.21-21.59,84-36.7,123.45-13.48,35.17-27.42,71.54-34.45,109.52-10,53.59-5.67,111-1.51,166.48C708.07,654.75,710.86,692,709.67,727.48Z"/><path class="cls-3" d="M694.05,730.45l-1,0c.71-36-3.62-73.93-7.81-110.63-6.43-56.26-13.07-114.44-2.19-168.45,7.74-38.76,23.82-75.09,39.37-110.23,17.32-39.12,35.23-79.59,41.64-123.5,8.79-60.44,8.32-124.7,7.87-186.85-.27-35.95-.54-73.12,1-108.74s6.77-66,26.3-98.78c1.84-3.06,3.63-6,5.38-8.88,15.1-24.88,27-44.53,33.7-77l1,.2c-6.7,32.63-18.67,52.35-33.83,77.31q-2.61,4.31-5.37,8.87C780.68-143.67,775.6-113.38,774-77.92s-1.29,72.75-1,108.68c.45,62.19.92,126.49-7.88,187-6.43,44.05-24.37,84.58-41.71,123.77-15.53,35.08-31.59,71.36-39.31,110-10.85,53.87-4.22,112,2.2,168.14C690.42,656.42,694.76,694.4,694.05,730.45Z"/><path class="cls-3" d="M678.14,732.39l-1,0c.56-36.48-5.14-75.42-10.65-113.08-8.56-58.51-17.41-119-3.89-174.22,8.81-36.18,25.29-69.93,41.23-102.57,19.41-39.78,39.49-80.9,45.75-126.61,8.21-60.31,7-123.7,5.81-185-.75-39.17-1.53-79.68.18-118.78,1.84-41.77,18.68-69.86,36.52-99.61,13.83-23.05,28.13-46.9,34.59-77.66l1,.21c-6.5,30.92-20.84,54.84-34.71,78-17.77,29.63-34.56,57.61-36.38,99.14-1.71,39.06-.93,79.56-.18,118.72,1.18,61.34,2.4,124.77-5.82,185.16-6.28,45.86-26.39,87.06-45.85,126.91-15.91,32.59-32.36,66.29-41.15,102.37-13.47,55-4.64,115.42,3.91,173.84C673,656.84,678.7,695.82,678.14,732.39Z"/><path class="cls-3" d="M662.18,732.71l-1,0c.77-37.85-5.9-78-12.35-116.82-9.58-57.58-19.47-117.13-5.92-172,9.07-36.8,26.7-70.57,43.76-103.23,20.58-39.42,41.86-80.17,48.06-126.37,8.08-59.5,6.14-121.8,4.27-182-1.26-40.45-2.55-82.27-.78-122.63.87-19,2.83-33.22,6.36-46.26a124.77,124.77,0,0,1,19.56-41.16c4-5.42,7.73-10.38,11.39-15.18,17.1-22.45,30.61-40.18,37.43-74.2l1,.2c-6.87,34.25-20.44,52.06-37.62,74.6-3.65,4.8-7.43,9.76-11.37,15.16-12.07,16.71-23.54,38.81-25.73,86.88C737.45-50,738.74-8.2,740,32.23c1.87,60.29,3.81,122.64-4.28,182.22-6.22,46.37-27.54,87.2-48.17,126.69-17,32.61-34.63,66.32-43.67,103-13.5,54.64-3.62,114.08,5.93,171.57C656.27,654.58,663,694.76,662.18,732.71Z"/><path class="cls-3" d="M646,731.58l-1,0c1.13-39.07-5.92-80-12.74-119.69-9.72-56.53-19.78-115-6.59-169.63,9-37.29,27.14-71.12,44.69-103.85,20.89-38.94,42.49-79.21,48.57-125.35,7.84-58.61,5.62-119.65,3.48-178.69C720.89-7.29,719.34-50.32,721.33-92c2.4-46.63,12.25-68.65,26.29-87.37,4.13-5.53,8.09-10.56,11.92-15.44,17.4-22.14,31.14-39.64,37.83-74l1,.19c-6.73,34.62-20.54,52.2-38,74.45-3.82,4.87-7.77,9.9-11.9,15.42-13.93,18.57-23.7,40.45-26.09,86.82-2,41.63-.43,84.65,1.07,126.25,2.15,59.08,4.36,120.17-3.49,178.86-6.1,46.32-27.74,86.67-48.68,125.69-17.52,32.67-35.64,66.45-44.59,103.62-13.15,54.44-3.11,112.79,6.6,169.22C640.07,651.38,647.13,692.41,646,731.58Z"/><path class="cls-3" d="M629.66,728.16l-1,0c1-38.52-5.81-79.13-12.35-118.39-9.55-57.29-19.42-116.53-6-171.64,8.93-36.82,26.88-70.12,44.24-102.33,20.67-38.34,42-78,48.17-123.67,7.88-58.06,5.36-118.49,2.92-176.92-1.76-42.15-3.57-85.73-1.47-128,1-19,3-33.32,6.54-46.34a125.39,125.39,0,0,1,19.59-41.26c3.89-5.37,7.63-10.32,11.25-15.1,17.32-22.9,31-41,37.86-75.28l1,.2c-6.9,34.52-20.64,52.68-38,75.68-3.62,4.78-7.36,9.72-11.24,15.09-19.19,26.56-24.25,54-25.94,87.06-2.1,42.24-.29,85.8,1.47,127.93,2.44,58.47,5,118.94-2.93,177.09-6.16,45.87-27.57,85.6-48.28,124-17.33,32.15-35.25,65.39-44.15,102.09-13.38,54.91-3.52,114,6,171.23C623.85,648.9,630.62,689.55,629.66,728.16Z"/><path class="cls-3" d="M613.27,723.53l-1,0c.92-38.46-5.38-78.85-11.47-117.92-8.68-55.66-17.65-113.21-6.29-167,8.17-38.66,26.81-73.05,44.84-106.31,20-36.93,40.72-75.12,47-119.19,8.35-57.73,5.14-118.55,2-177.37C686.31-4,684.14-45,685.59-84.5,687-121.83,692.53-153,714.94-184l2.65-3.63c20-27.42,34.45-47.23,41.93-84l1,.19c-7.53,37-22,56.87-42.1,84.39l-2.65,3.63c-22.26,30.73-27.76,61.77-29.16,98.92-1.45,39.4.72,80.41,2.82,120.08,3.12,58.86,6.34,119.73-2,177.56-6.34,44.25-27.09,82.52-47.15,119.53-18,33.19-36.6,67.52-44.74,106-11.32,53.67-2.36,111.13,6.3,166.69C607.88,644.55,614.19,685,613.27,723.53Z"/><path class="cls-3" d="M596.68,717.46l-1,0c1.06-38.3-4.81-78.64-10.49-117.66-8.14-56-16.56-113.82-5.06-167.69,8-37.31,26.14-70.32,43.73-102.25,19.55-35.48,39.76-72.17,45.94-114.85,8.22-57.51,4.35-118.1.61-176.69C667.87-1.45,665.24-42.53,666.46-82c1.43-43.71,9.65-72.86,28.35-100.64l3.06-4.54c19.19-28.49,33.06-49.07,40.11-85.36l1,.2c-7.09,36.48-21.74,58.21-40.27,85.72l-3.06,4.54C677.05-154.51,668.89-125.51,667.46-82c-1.21,39.46,1.41,80.52,3.95,120.23,3.74,58.65,7.62,119.29-.62,176.9-6.21,42.86-26.46,79.63-46,115.19-17.56,31.87-35.71,64.81-43.63,102-11.46,53.69-3.06,111.47,5.07,167.34C591.87,638.69,597.74,679.07,596.68,717.46Z"/><path class="cls-3" d="M580.19,710.36l-1,0c1.29-38.32-4.05-78.75-9.21-117.84-7.41-56.16-15.07-114.23-3.57-168,7.63-35.71,25.27-67,42.33-97.24,19-33.74,38.71-68.62,44.44-109.69,8-57.17,3.36-117.3-1.09-175.44C649,2.24,645.88-39,646.86-78.61c1-42.54,9.11-73.11,27.22-102.23l1.09-1.76c18.57-29.8,33.24-53.33,40.33-90.67l1,.19c-7.13,37.52-21.84,61.12-40.46,91l-1.09,1.76c-18,28.95-26.1,59.38-27.07,101.73C646.88-39,650,2.19,653.08,42c4.46,58.2,9.07,118.39,1.1,175.66-5.77,41.26-25.49,76.22-44.57,110-17,30.18-34.63,61.4-42.22,97-11.47,53.62-3.81,111.6,3.59,167.68C576.14,631.49,581.48,672,580.19,710.36Z"/><path class="cls-3" d="M563.59,702.63l-1,0c1.5-38-3.25-78.25-7.84-117.16-6.68-56.64-13.59-115.21-1.78-169.37,7.34-33.75,24.31-63.07,40.72-91.43,18.44-31.87,37.5-64.83,42.88-104.11,7.7-56.84,2.26-116.69-3-174.57C630,6.07,626.2-35.17,626.85-74.8a194,194,0,0,1,10.85-60.31c6.23-18.32,14.61-35.67,22.7-52.44,12.78-26.48,26-53.86,31.71-86.52l1,.17c-5.74,32.8-19,60.24-31.8,86.79-16.85,34.91-32.76,67.88-33.45,112.33C627.2-35.21,631,6,634.57,45.86c5.26,57.94,10.71,117.85,3,174.8-5.41,39.48-24.52,72.52-43,104.47-16.37,28.29-33.29,57.55-40.6,91.15-11.78,54-4.88,112.48,1.8,169C560.34,624.26,565.09,664.53,563.59,702.63Z"/><path class="cls-3" d="M546.85,694.48l-1,0c1.8-38.43-2.37-78.83-6.41-117.9-5.65-54.65-11.49-111.17-1.32-164,6.5-33.64,23.58-62.13,40.1-89.69,18.07-30.15,36.75-61.32,41.38-99.14,6.79-56,.8-113.95-5-170-4.42-42.81-9-87.08-7.82-130,1.12-42.37,16.66-77.28,31.69-111,12-27,24.49-55,29.84-87.07l1,.16c-5.37,32.19-17.85,60.22-29.92,87.32-15,33.67-30.48,68.49-31.6,110.65-1.17,42.88,3.4,87.12,7.81,129.9,5.8,56.13,11.79,114.17,5,170.25-4.66,38-23.4,69.3-41.52,99.53-16.48,27.49-33.51,55.91-40,89.37-10.15,52.73-4.32,109.18,1.33,163.76C544.48,615.54,548.66,656,546.85,694.48Z"/><path class="cls-3" d="M530.19,686.26l-1-.06c2.12-38.48-1.43-78.92-4.87-118-4.83-54.91-9.83-111.69.6-164.75,6.19-31.51,22.49-57.81,38.26-83.25,17.44-28.14,35.47-57.25,39.65-93.35,6.56-55.85-.33-113.73-7-169.71-5.07-42.58-10.31-86.61-9.56-129.33s15.66-79.27,30-114.52c11.29-27.73,23-56.4,28-88.37l1,.16c-5.1,32.08-16.79,60.81-28.11,88.59-14.31,35.16-29.12,71.51-29.93,114.16s4.49,86.65,9.56,129.2c6.67,56,13.56,114,7,169.94-4.2,36.32-22.3,65.52-39.8,93.76-15.71,25.36-32,51.59-38.12,82.92-10.4,52.92-5.41,109.62-.59,164.46C528.76,607.22,532.31,647.71,530.19,686.26Z"/><path class="cls-3" d="M513.5,678.22l-1-.06c2.29-37.27-.81-77.37-3.81-116.15-4.49-58.1-9.14-118.17,3.67-172.19,6.62-27.65,21.47-50.65,35.83-72.9,16.66-25.8,33.89-52.49,38-86.32,6.76-56.26-1.17-115.17-8.85-172.14C572,19.05,566.51-21.7,566-61c-.59-46,14-85.6,28.14-123.9,10.56-28.65,21.49-58.28,26.32-90.84l1,.15c-4.85,32.66-15.79,62.33-26.37,91C581-146.3,566.42-106.79,567-61c.5,39.2,6,79.92,11.29,119.3,7.68,57,15.62,116,8.84,172.39-4.1,34.06-21.39,60.84-38.11,86.75-14.31,22.17-29.12,45.1-35.69,72.58-12.78,53.87-8.14,113.86-3.65,171.88C512.69,600.74,515.8,640.88,513.5,678.22Z"/><path class="cls-3" d="M496.73,671l-1-.07c2.5-36.93-.08-76.8-2.57-115.36-3.79-58.69-7.71-119.37,5.52-173.66,6.37-26.09,20.59-47.34,34.34-67.89,16-23.92,32.57-48.66,36.39-80.91,6.52-56.12-2.18-114.8-10.6-171.55C553,22.27,547-18.38,546.12-57.55c-.92-46.38,13-87.44,26.55-127.15,9.91-29.14,20.16-59.28,24.72-91.7l1,.14c-4.58,32.51-14.84,62.7-24.77,91.88-13.47,39.63-27.41,80.6-26.49,126.81.82,39.11,6.85,79.73,12.68,119,8.43,56.81,17.14,115.55,10.6,171.8-3.84,32.5-20.47,57.34-36.54,81.36-13.71,20.47-27.88,41.65-34.21,67.56-13.19,54.15-9.28,114.75-5.49,173.36C496.65,594.12,499.23,634,496.73,671Z"/><path class="cls-3" d="M480.07,664.65l-1-.07c2.62-36.59.49-76.22-1.58-114.55-3.19-59.27-6.48-120.55,7-175,6.17-24.86,19.9-44.62,33.18-63.72,15.45-22.23,31.42-45.21,35-76.05,6.4-56-3-114.5-12-171.09-6.28-39.22-12.77-79.79-13.85-118.84C525.59-101.37,539-143.63,552-184.49c9.4-29.55,19.11-60.11,23.42-92.48l1,.13c-4.32,32.46-14,63.06-23.45,92.65-13,40.79-26.37,83-25.12,129.48,1.08,39,7.56,79.52,13.83,118.71,9.07,56.66,18.44,115.25,12,171.37-3.61,31.08-19.66,54.17-35.18,76.5-13.23,19-26.9,38.7-33,63.39-13.49,54.32-10.19,115.52-7,174.71C480.56,588.33,482.69,628,480.07,664.65Z"/><path class="cls-3" d="M463.71,659.35l-1-.07c2.59-36.09.79-75.27-.95-113.17-2.75-60-5.59-122,8.16-176.81,6-23.88,19.3-42.46,32.19-60.43,15.06-21,30.63-42.7,34-72.72,6.39-55.89-3.49-114.18-13-170.55-6.65-39.25-13.53-79.82-14.76-119C506.94-100.44,520-143.95,532.68-186c8.92-29.68,18.15-60.36,22.4-92.36l1,.14c-4.26,32.07-13.5,62.79-22.43,92.5-12.63,42-25.69,85.43-24.3,132.33,1.23,39.09,8.1,79.63,14.74,118.84,9.57,56.44,19.45,114.8,13,170.84-3.43,30.27-19.08,52.09-34.21,73.19-12.83,17.89-26.1,36.39-32,60.08C457.18,424.2,460,486.15,462.76,546.07,464.5,584,466.3,623.2,463.71,659.35Z"/><path class="cls-3" d="M447.22,655.69l-1-.07c3.4-47.92,3.11-96.61,2.83-143.7l-.08-13c-.06-9.07-.31-18.31-.58-28.09-1-35.94-2-73.1,6.24-105.64,5.93-23.41,19-41.3,31.66-58.6,14.76-20.18,30-41.06,33.37-70.52C526,180.36,515.85,122.4,506,66.36,499.11,27,492-13.72,490.72-53c-1.42-47.4,11.5-91.84,24-134.82,8.58-29.54,17.46-60.08,21.72-91.53l1,.13c-4.27,31.53-13.16,62.11-21.75,91.68C503.2-144.65,490.3-100.28,491.72-53,493-13.82,500.1,26.85,507,66.18c9.85,56.12,20,114.15,13.66,170-3.38,29.73-18.72,50.71-33.56,71-12.59,17.23-25.62,35-31.5,58.25-8.18,32.41-7.18,69.5-6.21,105.38.27,9.78.52,19,.58,28.1l.08,13C450.33,559,450.62,607.73,447.22,655.69Z"/><path class="cls-3" d="M431.09,653.94l-1-.06c3.33-49.44,3.06-99.73,2.81-148.37l0-8.57c0-9.63-.28-19.47-.55-29.89-.92-35.33-1.87-71.86,6.21-103.84,5.93-23.39,19-41.32,31.56-58.66,14.73-20.26,30-41.21,33.31-70.69,6.23-55.52-3.86-113.06-13.62-168.72-6.9-39.39-14-80.11-15.23-119.48-1.46-48,11.57-93.7,24.17-137.88,8.28-29,16.84-59,21.28-89.55l1,.14C516.53-251,508-221,499.67-191.95c-12.58,44.12-25.59,89.73-24.13,137.58,1.18,39.29,8.32,80,15.22,119.34,9.77,55.72,19.87,113.34,13.62,169-3.38,29.74-18.68,50.8-33.49,71.17-12.55,17.26-25.52,35.11-31.4,58.31-8,31.86-7.1,68.31-6.18,103.57.27,10.43.53,20.27.55,29.92l0,8.57C434.15,554.16,434.42,604.47,431.09,653.94Z"/><path class="cls-3" d="M414.39,654l-1-.07c2.47-35.5.94-74.1-.54-111.43-2.39-60.62-4.87-123.3,8.89-178.63,6-23.72,19-42.64,31.59-60.93,14.77-21.46,30.06-43.65,33.43-73.4,6.16-54.72-3.51-111.63-12.86-166.67-6.58-38.71-13.38-78.73-14.53-117.42-1.5-49.19,11.31-97,23.7-143.3,7.66-28.63,15.59-58.24,20-87.86l1,.14c-4.46,29.68-12.4,59.32-20.07,88-12.36,46.2-25.15,94-23.66,143,1.15,38.62,7.94,78.61,14.51,117.28,9.37,55.11,19.05,112.09,12.88,167-3.41,30-18.76,52.28-33.61,73.84-12.55,18.22-25.53,37.07-31.44,60.61-13.73,55.19-11.25,117.8-8.86,178.35C415.33,579.84,416.86,618.47,414.39,654Z"/><path class="cls-3" d="M397.54,655.75l-1-.07c2.43-35.86.86-74.53-.65-111.93-2.42-60.05-4.94-122.14,8.36-177.59,5.89-24.74,19-45.31,31.63-65.19,14.79-23.25,30.09-47.29,33.55-77.86,5.93-53.46-3.05-108.9-11.73-162.52C451.61,23,445.31-16,444.3-53.66c-1.36-50.89,10.8-101.54,22.56-150.53,6.86-28.56,13.95-58.09,18.23-87.22l1,.15c-4.29,29.17-11.38,58.72-18.25,87.31C456.09-155,444-104.45,445.3-53.69c1,37.62,7.3,76.51,13.39,114.12,8.69,53.68,17.68,109.2,11.73,162.79-3.48,30.81-18.84,54.94-33.7,78.29-12.61,19.81-25.65,40.3-31.5,64.88-13.26,55.32-10.75,117.34-8.33,177.32C398.41,581.13,400,619.83,397.54,655.75Z"/><path class="cls-3" d="M380.27,658.47l-1-.07c2.47-36.53.9-75.6-.62-113.39-2.37-59.18-4.83-120.38,7.7-175.79,5.93-26.1,19-48.61,31.65-70.38,14.86-25.6,30.24-52.07,33.75-84.29,5.64-51.56-2.35-105-10.07-156.59-5.45-36.44-11.09-74.12-11.83-110.67-1-53.07,10.11-107,20.88-159.08,5.92-28.68,12-58.33,16-87.22l1,.13c-3.94,28.93-10.07,58.6-16,87.29C441-159.53,429.82-105.69,430.85-52.73c.74,36.49,6.37,74.13,11.82,110.54,7.73,51.7,15.73,105.16,10.08,156.85-3.54,32.43-19,59-33.89,84.68-12.61,21.71-25.64,44.15-31.54,70.1-12.5,55.28-10,116.41-7.67,175.53C381.17,582.78,382.74,621.89,380.27,658.47Z"/><path class="cls-3" d="M362.92,662l-1-.07c2.58-38.11,1.09-78-.34-116.47-2.07-55.72-4.22-113.32,5.74-167.48,5.48-29.8,19.16-56.1,32.4-81.55,14.84-28.53,30.2-58,33.81-92.38,5.24-48.85-1.51-98.79-8-147.08-5.1-37.74-10.37-76.76-9.88-115,.63-54.36,10-109.7,19.09-163.22,4.82-28.42,9.81-57.81,13.37-86.49l1,.12c-3.56,28.71-8.55,58.11-13.37,86.54C426.63-167.55,417.25-112.25,416.62-58c-.49,38.13,4.77,77.12,9.87,114.81,6.53,48.36,13.29,98.36,8,147.33-3.63,34.53-19,64.12-33.91,92.74-13.2,25.37-26.85,51.61-32.31,81.26-9.93,54.05-7.79,111.6-5.72,167.26C364,584,365.5,623.85,362.92,662Z"/><path class="cls-3" d="M345.49,666.36l-1-.06c2.51-38,1-77.79-.51-116.3-2.21-57.38-4.5-116.72,6.33-172.18,5.89-30.57,19.11-58.43,31.89-85.36,14.56-30.7,29.61-62.44,33.77-98.19,5.41-46.9-.38-95.35-6-142.21-4-33.62-8.17-68.39-8.12-102.16.06-60.33,8.56-122.6,16.78-182.82,3.77-27.63,7.67-56.19,10.64-83.87l1,.11c-3,27.69-6.87,56.26-10.64,83.89-8.21,60.19-16.71,122.43-16.77,182.69-.05,33.71,4.1,68.45,8.12,102,5.61,46.91,11.41,95.42,6,142.44-4.18,35.91-19.27,67.73-33.87,98.5-12.75,26.89-25.94,54.69-31.81,85.13-10.81,55.35-8.52,114.63-6.31,172C346.46,588.5,348,628.35,345.49,666.36Z"/><path class="cls-3" d="M327.88,670.91l-1-.06c2.46-38.5.88-78.63-.65-117.42-2.25-56.8-4.57-115.53,5.66-170.95,6-32.78,19.21-63.29,32-92.8,14.53-33.61,29.56-68.36,33.95-106.52,5.15-44.28.6-89.8-3.8-133.83-3.2-32-6.52-65.2-6.06-97.6,1.05-68,8.12-137.89,14.95-205.5,2.41-23.93,4.92-48.67,7.09-72.8l1,.09c-2.18,24.13-4.68,48.88-7.1,72.81C397.06-186.08,390-116.2,389-48.25c-.45,32.34,2.85,65.46,6.06,97.49,4.4,44.07,9,89.65,3.79,134-4.41,38.3-19.46,73.12-34,106.8-12.73,29.45-25.9,59.91-31.9,92.59-10.21,55.3-7.9,114-5.66,170.72C328.76,592.21,330.35,632.36,327.88,670.91Z"/><path class="cls-3" d="M310.46,675.48l-1-.06c2.43-38.89.68-79.38-1-118.54-2.52-58.1-5.12-118.18,5.74-175,6.36-33.25,19-64.78,31.21-95.27,14.5-36.21,29.5-73.65,34-114.11C384.15,130.2,381,87.06,378,45.34c-2.31-31.87-4.71-64.81-3.58-97.14,3-85.45,8.42-178.38,16.46-284.11l1,.07c-8,105.72-13.43,198.64-16.46,284.08-1.13,32.27,1.27,65.19,3.58,97,3,41.77,6.17,85,1.44,127.31-4.54,40.59-19.57,78.09-34.09,114.36-12.2,30.45-24.81,61.94-31.15,95.09-10.85,56.76-8.25,116.78-5.73,174.82C311.15,596,312.9,636.54,310.46,675.48Z"/><path class="cls-3" d="M293.07,679.64l-1-.06c2.4-39.44.6-80.28-1.15-119.76-2.54-57.54-5.17-117,5.08-173.71,6.51-35.54,19.16-69.61,31.39-102.56,14.36-38.68,29.21-78.68,34.13-121.13,4.63-40.11,2.64-81.06.72-120.66-1.45-29.94-2.95-60.89-1.59-91.29,1.83-40.09,3.05-80.95,4.24-120.47,1.71-57.39,3.48-116.73,7.15-174.81l1,.07c-3.67,58.06-5.44,117.39-7.16,174.77-1.18,39.52-2.4,80.39-4.23,120.48-1.36,30.36.14,61.29,1.59,91.2,1.93,39.64,3.91,80.63-.73,120.82-4.93,42.57-19.8,82.63-34.18,121.36C316.11,316.8,303.48,350.83,297,386.28c-10.23,56.58-7.6,116-5.06,173.49C293.67,599.29,295.47,640.14,293.07,679.64Z"/><path class="cls-3" d="M275.74,683.17l-1-.06c2.39-39.72.46-80.75-1.4-120.43-2.59-55.26-5.28-112.4,3.59-167.21,6.45-39.55,19.67-77.66,32.46-114.52,14.3-41.21,29.08-83.83,34.41-128.55,4.65-39.07,3.74-79.24,2.85-118.09-.65-28.7-1.32-58.38.25-87.39,2.86-51,3.09-102.85,3.31-153,.21-48.32.43-98.29,3-147.37l1,.05c-2.56,49.06-2.78,99-3,147.32C351-155.92,350.76-104,347.9-53c-1.57,29-.9,58.64-.25,87.32.89,38.88,1.8,79.09-2.86,118.23-5.34,44.83-20.14,87.49-34.46,128.76-12.77,36.82-26,74.89-32.41,114.35-8.85,54.71-6.17,111.8-3.58,167C276.2,602.34,278.13,643.39,275.74,683.17Z"/><path class="cls-3" d="M258.68,685.7l-1-.06c2.4-40,.35-81.18-1.62-121-2.73-54.9-5.54-111.68,3.18-166.26,6.61-41.22,19.77-81.16,32.49-119.78,14.22-43.14,28.91-87.75,34.52-134.29,4.63-37.62,4.64-76.29,4.65-113.69,0-27.07,0-55.07,1.77-82.5,3.4-54.06,2.53-109.08,1.68-162.28-.76-48-1.54-97.6.8-146.44l1,.05c-2.33,48.8-1.55,98.4-.79,146.37.85,53.23,1.72,108.26-1.68,162.37-1.75,27.39-1.76,55.37-1.77,82.43,0,37.43,0,76.13-4.66,113.81-5.61,46.63-20.33,91.29-34.56,134.49C280,317.46,266.83,357.36,260.23,398.5c-8.7,54.48-5.89,111.2-3.17,166C259,604.44,261.09,645.68,258.68,685.7Z"/><path class="cls-3" d="M241.75,686.78l-1-.06c2.42-40.18.29-81.53-1.76-121.52-2.8-54.54-5.69-110.94,2.87-165.21,6.74-42.47,19.9-83.82,32.62-123.81,14.15-44.49,28.79-90.5,34.6-138.13,12.18-99,10.08-200.56,8.06-298.73-1.39-67.5-2.84-137.29.38-205.61l1,.05c-3.21,68.28-1.77,138.06-.38,205.54,2,98.21,4.12,199.76-8.07,298.87C304.25,185.9,289.6,232,275.43,276.48c-12.71,40-25.85,81.27-32.58,123.67-8.55,54.16-5.66,110.51-2.86,165C242,605.17,244.17,646.54,241.75,686.78Z"/><path class="cls-3" d="M225.28,686.66l-1-.06c2.39-40,.24-81.16-1.84-121-2.85-54.57-5.8-111,2.9-165.36,6.79-43,19.91-85,32.6-125.66,14.15-45.28,28.77-92.11,34.65-140.43,11.86-97.48,9.68-196.76,7.58-292.78-1.52-69.26-3.09-140.87.62-211.17l1,.05c-3.71,70.27-2.14,141.86-.62,211.09,2.11,96.06,4.29,195.38-7.59,292.93-5.89,48.41-20.53,95.28-34.68,140.61-12.68,40.6-25.79,82.58-32.57,125.52-8.68,54.25-5.74,110.63-2.89,165.14C225.53,605.42,227.69,646.61,225.28,686.66Z"/><path class="cls-3" d="M209.22,684.3l-1-.06c2.49-40.24.27-81.6-1.88-121.6-2.92-54.23-5.93-110.31,2.73-164.53,6.84-42.71,19.87-84.45,32.48-124.81,14.17-45.41,28.83-92.35,34.73-140.87,12.19-99.15,10.07-200.41,8-298.34-1.41-67.38-2.86-137,.36-205.39l1,.05c-3.21,68.3-1.76,138-.35,205.32,2.05,98,4.17,199.26-8,298.48-5.91,48.61-20.58,95.6-34.77,141.05-12.59,40.33-25.61,82-32.44,124.67-8.65,54.11-5.64,110.14-2.72,164.31C209.49,602.61,211.71,644,209.22,684.3Z"/><path class="cls-3" d="M193.49,680.53l-1-.06c2.6-40.55.16-82.21-2.2-122.49-3.13-53.65-6.37-109.12,2.2-162.71,6.76-42.63,19.88-84.22,32.57-124.43,14.08-44.64,28.64-90.79,34.56-138.56C272,31.88,270.37-71.51,268.8-171.5c-1-65.17-2.07-132.56.78-198.3l1,0c-2.85,65.71-1.8,133.09-.78,198.25,1.57,100,3.18,203.44-9.19,303.92-5.93,47.85-20.51,94.05-34.6,138.73-12.67,40.18-25.78,81.73-32.53,124.29-8.56,53.48-5.32,108.9-2.19,162.49C193.65,598.24,196.09,639.93,193.49,680.53Z"/><path class="cls-3" d="M178.13,675.14l-1-.06c2.5-40.43-.2-81.91-2.8-122-3.46-53.27-7-108.36,1.51-161.66,6.68-41.88,19.78-82.73,32.45-122.24,14.11-44,28.69-89.43,34.44-136.42,4.41-36.52,4.41-74.11,4.41-110.47,0-26.38,0-53.66,1.69-80.36,3.33-54.73,3.57-110.47,3.8-164.36.2-47.37.41-96.35,2.72-144.52l1,.05c-2.31,48.15-2.52,97.12-2.72,144.47-.23,53.91-.47,109.66-3.81,164.43-1.68,26.66-1.68,53.93-1.68,80.29,0,36.39,0,74-4.42,110.59-5.76,47.08-20.36,92.59-34.47,136.61-12.67,39.47-25.76,80.28-32.43,122.09-8.53,53.19-4.95,108.22-1.49,161.44C177.93,593.14,180.63,634.65,178.13,675.14Z"/><path class="cls-3" d="M163.07,668.74l-1-.06c2.43-40.34-.63-81.77-3.58-121.84-4-54.65-8.2-111.16,1.5-165.67,6.81-38.62,19.17-76.32,31.13-112.78,14.18-43.25,28.85-88,34.26-134.41,4.27-36.24,3.46-73.29,2.67-109.12-.58-26.5-1.18-53.9.27-80.82,2.76-50,4.53-100.88,6.25-150.07,1.79-51.42,3.65-104.58,6.63-156.86l1,.06c-3,52.26-4.83,105.42-6.62,156.84-1.72,49.19-3.49,100.06-6.25,150.09-1.45,26.88-.85,54.26-.27,80.73.79,35.87,1.6,73-2.67,109.27-5.43,46.53-20.11,91.3-34.31,134.6-11.95,36.43-24.3,74.09-31.09,112.65-9.68,54.38-5.52,110.83-1.49,165.42C162.44,586.87,165.5,628.33,163.07,668.74Z"/><path class="cls-3" d="M148.11,661.32l-1-.06c2.24-40-1.23-81.08-4.58-120.79-4.57-54.14-9.3-110.12.36-164.27,6.7-37.61,19.05-74.23,31-109.65,14.23-42.19,28.93-85.81,34.16-131.33,4.2-36.72,2.52-74.21.9-110.47-1.22-27.4-2.49-55.74-1.21-83.57,3.75-81.23,9.93-164,15.91-244q2.06-27.43,4.07-54.83l1,.08q-2,27.39-4.07,54.83c-6,80-12.16,162.79-15.92,244-1.27,27.78,0,56.09,1.22,83.48,1.62,36.29,3.3,73.82-.91,110.63-5.24,45.62-20,89.29-34.2,131.52-11.93,35.39-24.27,72-31,109.52-9.64,54-4.92,109.93-.36,164C146.88,580.13,150.35,621.22,148.11,661.32Z"/><path class="cls-3" d="M133.37,653.51l-1,0c2-39.39-1.87-79.77-5.59-118.82-5-52-10.08-105.7-1.54-157.86,6.33-38.6,19.23-75.88,31.71-111.93,14.2-41,28.88-83.48,33.88-128,4.1-36.74,1.43-74.16-1.14-110.35-1.94-27.15-3.94-55.23-3.08-82.88,2-63.75,9.54-128.72,16.79-191.56,3.93-34.12,8-69.4,11.13-103.93l1,.09c-3.13,34.55-7.2,69.83-11.14,104C197.14-185,189.65-120,187.61-56.31c-.86,27.6,1.14,55.65,3.07,82.78,2.58,36.23,5.25,73.7,1.15,110.53-5,44.6-19.72,87.08-33.94,128.17-12.46,36-25.35,73.26-31.66,111.77-8.53,52-3.41,105.7,1.54,157.61C131.5,573.63,135.36,614.05,133.37,653.51Z"/><path class="cls-3" d="M118.65,645.48l-1,0c1.71-39-2.58-78.84-6.73-117.41-5.53-51.5-11.26-104.76-2.76-156.42,6.2-37.4,19.08-73.41,31.53-108.23,14.28-39.92,29-81.19,33.74-124.63,4.06-37.56.45-75.72-3-112.61C167.76-1.76,165-30.6,165.62-59c1.34-60.4,11.17-121.8,20.68-181.18,5.54-34.58,11.27-70.34,15.21-105.32l1,.11c-3.94,35-9.67,70.77-15.21,105.37-9.5,59.34-19.33,120.71-20.67,181-.59,28.38,2.14,57.2,4.77,85.07,3.49,36.94,7.1,75.14,3,112.81-4.71,43.56-19.49,84.89-33.79,124.85-12.44,34.78-25.3,70.75-31.49,108.06-8.47,51.53-2.75,104.72,2.78,156.15C116.07,566.53,120.36,606.45,118.65,645.48Z"/><path class="cls-3" d="M103.93,637.68l-1,0c1.46-38.63-3.33-78.06-8-116.19-6-49.09-12.15-99.85-5-149.32,5.56-38.53,19.17-75.2,32.34-110.67,14.34-38.62,29.16-78.56,33.54-120.87,3.94-38.63-.46-77.7-4.71-115.49-3.39-30.19-6.91-61.4-6.15-92.2,1.41-56.07,13-112.59,24.27-167.25,7.1-34.48,14.43-70.12,19.06-105.12l1,.13c-4.65,35-12,70.7-19.08,105.19C159-179.53,147.38-123,146-67.08c-.75,30.74,2.75,61.91,6.15,92.07,4.25,37.84,8.65,77,4.71,115.7-4.4,42.44-19.24,82.44-33.6,121.11C110.09,297.23,96.49,333.85,91,372.27c-7.13,49.34-1,100,5,149.06C100.59,559.5,105.39,599,103.93,637.68Z"/><path class="cls-3" d="M89,630.05l-1,0c1.27-38.27-4-77.29-9-115-6.5-48.57-13.22-98.81-6.12-147.83,5.42-37.23,18.94-72.63,32-106.86,14.41-37.71,29.3-76.7,33.41-118.28C142.2,102.62,137,63,131.92,24.61c-4.07-30.92-8.28-62.88-7.7-94.6.91-54.09,14.6-108.14,27.85-160.4,8.6-34,17.5-69.08,22.73-103.68l1,.15c-5.24,34.65-14.14,69.79-22.75,103.78C139.81-177.93,126.13-123.95,125.22-70c-.58,31.64,3.63,63.57,7.69,94.45,5.06,38.41,10.29,78.12,6.38,117.63-4.12,41.72-19,80.77-33.47,118.54-13.06,34.18-26.57,69.53-32,106.66-7.08,48.88-.37,99,6.12,147.55C85,552.63,90.25,591.69,89,630.05Z"/><path class="cls-3" d="M73.94,623.24l-1,0c1.11-37.94-4.44-76.75-9.81-114.29-7.15-50-14.54-101.69-6.3-152,5.75-34.56,18.72-67.43,31.26-99.22,14.37-36.43,29.23-74.1,33.22-114.4,4-40.11-2.11-80.52-8-119.6C108.85-5.95,104.24-36.61,104-67c-.34-54.52,15.66-108.3,31.13-160.31,9.94-33.4,20.21-67.94,26-102.2l1,.16c-5.79,34.33-16.08,68.9-26,102.33C120.65-175.07,104.68-121.37,105-67c.22,30.3,4.83,60.92,9.29,90.53,5.89,39.15,12,79.62,8,119.85-4,40.44-18.89,78.18-33.29,114.67-12.52,31.74-25.47,64.56-31.2,99-8.22,50.17-.84,101.79,6.3,151.71C69.5,546.36,75.05,585.21,73.94,623.24Z"/><path class="cls-3" d="M58.77,617.67l-1,0c1-37.8-4.86-76.36-10.55-113.66-7.55-49.6-15.37-100.9-7-151,5.67-33.84,18.61-65.88,31.12-96.87,14.38-35.6,29.25-72.41,33.07-112,4-41.26-2.76-82.85-9.28-123.07-4.78-29.51-9.73-60-10.39-90.18-1.07-53.86,16.49-105.85,33.47-156.13,11.09-32.84,22.57-66.81,28.65-100.84l1,.18c-6.09,34.1-17.58,68.1-28.68,101C102.17-174.7,84.63-122.8,85.7-69.11c.66,30.07,5.6,60.56,10.38,90,6.52,40.28,13.27,81.94,9.28,123.33C101.53,184,86.64,220.87,72.23,256.53c-12.49,30.94-25.42,62.93-31.07,96.66-8.3,49.9-.49,101.11,7.05,150.64C53.9,541.17,59.79,579.78,58.77,617.67Z"/><path class="cls-3" d="M43.12,613.07l-1,0c1-37.79-5.09-76.29-11-113.52-7.81-49.27-15.88-100.22-7.48-149.94,5.62-33.36,18.55-64.86,31.05-95.33,14.38-35,29.24-71.28,33-110.43,4-41.52-3.13-83.25-10-123.61-5.13-30-10.44-61.08-11.15-91.89-1.16-52.93,17.12-102.77,34.79-151,12.09-33,24.6-67.1,30.75-101.88l1,.18c-6.17,34.87-18.69,69-30.8,102C84.65-174.19,66.41-124.44,67.56-71.7,68.27-41,73.57-9.95,78.69,20c6.91,40.42,14,82.23,10,123.87C84.93,183.22,70,219.52,55.64,254.63c-12.49,30.42-25.39,61.87-31,95.11-8.38,49.56-.32,100.43,7.47,149.63C38,536.64,44.13,575.18,43.12,613.07Z"/><path class="cls-3" d="M945.34,6c-30-4.06-60.63-10.49-90.28-16.7-47.83-10-97.3-20.39-145.81-21.29-36.45-.6-72.82,6.25-108,12.87C564.41-12.19,526.3-5,487.93-6.35c-148.44-5-290.57-16-434.51-33.6l.12-1C197.46-23.34,339.56-12.35,488-7.35c38.25,1.33,76.3-5.83,113.1-12.75,35.22-6.63,71.64-13.47,108.2-12.89,48.61.9,98.12,11.28,146,21.31C884.9-5.47,915.54,1,945.48,5Z"/><path class="cls-3" d="M939.05,34.13c-28.79-3.83-58.24-9.76-86.71-15.49C805.45,9.19,757-.57,709.34-1.43c-35.39-.69-70.65,6-104.76,12.49-36.76,7-74.79,14.21-113.15,12.24-127.55-6.58-257.94-21.37-384-35.67l-51.3-5.8.11-1,51.3,5.8C233.59.93,364,15.72,491.48,22.3c38.25,2,76.21-5.24,112.92-12.22,34.15-6.49,69.45-13.2,105-12.51,47.71.86,96.24,10.64,143.17,20.09,28.47,5.73,57.9,11.66,86.65,15.48Z"/><path class="cls-3" d="M932.37,62.49C904.72,59,876.4,53.58,849,48.38c-45.61-8.67-92.78-17.64-139.11-18.56-34.07-.68-68.11,5.86-101,12.19C572.08,49.09,534,56.42,495.59,53.67c-35.07-2.42-70.23-9.6-104.23-16.53-23.58-4.82-48-9.79-72-13.12-49.75-6.91-100.67-9.75-149.92-12.5-36.13-2-73.5-4.11-110.09-7.78l.1-1C96,6.42,133.33,8.5,169.46,10.52c49.27,2.75,100.21,5.59,150,12.51,24.11,3.33,48.51,8.31,72.1,13.13,34,6.93,69.1,14.1,104.1,16.51C533.93,55.41,572,48.1,608.72,41c32.95-6.34,67-12.89,101.21-12.21,46.41.92,93.62,9.9,139.28,18.57C876.58,52.6,904.87,58,932.49,61.5Z"/><path class="cls-3" d="M925.08,91.79c-27.13-3.33-54.78-8.25-81.51-13-42.06-7.49-85.56-15.25-128.38-17-34.41-1.44-68.79,5.27-102,11.77-36.92,7.21-75.08,14.66-113.46,11C463.86,81,428.52,70.84,394.34,61c-26.14-7.54-53.16-15.34-80.19-20C264.5,32.35,213,31.22,163.23,30.13,130.1,29.4,95.84,28.65,62.48,25.7l.08-1c33.33,2.94,67.58,3.69,100.69,4.42C213.08,30.22,264.6,31.35,314.32,40c27.08,4.72,54.14,12.52,80.3,20.07,34.13,9.84,69.43,20,105.18,23.47C538,87.14,576.12,79.7,613,72.51c33.3-6.51,67.74-13.23,102.26-11.79,42.89,1.81,86.42,9.57,128.52,17.07,26.72,4.76,54.34,9.68,81.45,13Z"/><path class="cls-3" d="M918.69,121.23c-25.83-3-52.14-7.46-77.57-11.74-41-6.91-83.46-14-125.25-15.59-33.12-1.25-66.33,5.18-98.43,11.4-37,7.17-75.24,14.59-113.47,10.22-36.85-4.23-72.37-17.42-106.72-30.18-27.05-10-55-20.44-83.43-26.36-49.49-10.43-101.67-9.9-152.12-9.37-31.64.32-64.35.66-95.9-1.73l.08-1c31.51,2.39,64.19,2,95.8,1.73C212.19,48.09,264.43,47.55,314,58c28.49,5.94,56.49,16.34,83.58,26.4,34.29,12.74,69.75,25.91,106.49,30.12,38.07,4.36,76.24-3,113.16-10.2,32.16-6.23,65.42-12.68,98.66-11.41,41.85,1.53,84.31,8.68,125.37,15.59,25.43,4.28,51.72,8.7,77.53,11.73Z"/><path class="cls-3" d="M911.91,149.38c-24.62-2.75-49.85-6.74-74.25-10.6-41.69-6.6-84.81-13.42-127-14.45-30.65-.7-61.54,5.42-91.44,11.33-36.5,7.22-74.25,14.69-111.83,9.84-38.32-5-74.81-21.31-110.1-37.11-25.61-11.47-52.09-23.33-79-30.68-50.1-13.59-104.54-11.32-157.19-9.12-30.75,1.28-62.54,2.61-92.72.68l.07-1c30.12,1.93,61.89.6,92.61-.68,52.72-2.2,107.24-4.47,157.49,9.15,27,7.38,53.48,19.25,79.13,30.74,35.22,15.77,71.64,32.08,109.82,37,37.41,4.83,75.08-2.62,111.5-9.83,30-5.92,60.92-12.05,91.66-11.35,42.23,1,85.37,7.86,127.1,14.46,24.38,3.86,49.6,7.85,74.21,10.6Z"/><path class="cls-3" d="M906.37,176.58c-22.86-2.58-46.23-6.07-68.84-9.46-41.59-6.22-84.6-12.66-126.72-13.74-30.08-.77-60.46,5.24-89.85,11-36.16,7.13-73.55,14.51-110.63,9.36-39.58-5.47-76.45-24.37-112.1-42.64-26-13.34-52.92-27.13-80.57-35.52C268.82,80.81,214.8,84.4,162.56,87.88c-30.61,2-62.26,4.14-92,2.39l0-1c29.7,1.75,61.32-.36,91.9-2.39,52.32-3.49,106.44-7.09,155.45,7.79,27.74,8.41,54.68,22.22,80.74,35.58,35.58,18.23,72.37,37.09,111.77,42.54,36.93,5.12,74.23-2.24,110.3-9.35,29.45-5.81,59.88-11.82,90.08-11.06,42.18,1.08,85.22,7.52,126.84,13.75,22.6,3.39,46,6.88,68.8,9.45Z"/><path class="cls-3" d="M901.72,201.78c-21.74-2.39-44-5.6-65.6-8.7-41.4-6-84.22-12.1-125.9-13-29.34-.63-59.08,5.14-87.85,10.73-36.12,7-73.48,14.26-110.39,8.89-40.63-5.84-77.73-26.69-113.61-46.85-26.3-14.78-53.5-30.06-81.77-39.21-48-15.57-101.39-11-153.06-6.55-30.62,2.63-62.29,5.34-91.93,3.67l.06-1c29.57,1.67,61.2-1,91.79-3.67,51.76-4.44,105.29-9,153.45,6.6,28.37,9.18,55.61,24.49,81.95,39.29,35.8,20.11,72.82,40.91,113.27,46.73,36.73,5.35,74-1.89,110-8.88,28.82-5.6,58.61-11.39,88.06-10.75,41.75.87,84.59,7,126,13,21.56,3.09,43.85,6.3,65.57,8.69Z"/><path class="cls-3" d="M538.57,224.69a187.89,187.89,0,0,1-26.66-1.82c-41-5.77-77.88-27.74-113.52-49C371.7,158,344.1,141.54,315,132c-47.3-15.4-99.78-10.3-150.54-5.38-31,3-63.11,6.12-93.36,4.36l.06-1c30.17,1.76,62.22-1.35,93.21-4.36,50.85-4.93,103.44-10,150.94,5.43,29.23,9.53,56.88,26,83.62,41.95,35.56,21.18,72.32,43.09,113.15,48.84,36.53,5.23,73.5-1.89,109.26-8.77,28.64-5.51,58.24-11.21,87.56-10.58,42.7.85,86.56,7,129,13,19.89,2.79,40.46,5.67,60.51,7.95l-.12,1c-20.05-2.28-40.63-5.16-60.53-8-42.38-5.95-86.21-12.1-128.85-12.95-29.23-.62-58.77,5.06-87.35,10.57C594.33,219.32,566.45,224.69,538.57,224.69Z"/><path class="cls-3" d="M896.22,244.93c-18.61-2.17-37.74-4.8-56.23-7.35-44-6.06-89.47-12.32-133.56-13.2-29-.61-58.56,4.81-87.1,10.05C583.5,241,546.46,247.81,510,242.79c-41.27-5.69-78.48-27.77-114.46-49.11-26.57-15.76-54-32.06-82.86-41.56-47.29-15.56-100-10.47-151-5.55-30.78,3-62.6,6-93.17,4.37l.06-1c30.49,1.66,62.28-1.41,93-4.38,51.06-4.93,103.88-10,151.36,5.6C341.86,160.7,369.39,177,396,192.82c35.9,21.29,73,43.31,114.09,49,36.35,5,73.31-1.79,109.06-8.35,28.59-5.25,58.15-10.68,87.3-10.07,44.15.88,89.66,7.15,133.68,13.21,18.49,2.55,37.61,5.18,56.2,7.35Z"/><path class="cls-3" d="M895.7,264.84C880.31,263,864.52,261,849.25,259c-48.62-6.32-98.9-12.86-147.8-13.94-28.21-.63-57.16,3.8-85.16,8.07-36.16,5.52-73.54,11.24-110,6.23-40.82-5.63-78.63-26.38-115.19-46.45-26.51-14.55-53.93-29.6-82.13-38.62-48.08-15.45-101.82-11.16-153.79-7-29.81,2.38-60.65,4.84-90.9,3.33l0-1c30.19,1.5,61-.95,90.77-3.33,52.07-4.15,105.91-8.44,154.18,7.06,28.29,9.06,55.75,24.13,82.3,38.71,36.48,20,74.21,40.72,114.85,46.33,36.28,5,73.6-.71,109.69-6.23,28-4.28,57-8.71,85.33-8.08,49,1.08,99.26,7.62,147.91,14,15.26,2,31,4,46.43,5.87Z"/><path class="cls-3" d="M896.59,285.17q-13.5-1.56-27.06-3.16c-57.59-6.76-117.14-13.74-175.32-15.89-27.34-.9-55.51,1.95-82.75,4.71-36.32,3.68-73.87,7.48-110.19,2.5-40.31-5.55-78.63-23.95-115.69-41.74-26.53-12.74-54-25.9-81.78-34.17-49-14.49-103.08-11.72-155.41-9-29.13,1.49-59.25,3-89.53,1.35l0-1c30.23,1.68,60.33.14,89.43-1.35,52.41-2.68,106.6-5.45,155.75,9.09,27.89,8.29,55.36,21.48,81.92,34.23,37,17.76,75.25,36.12,115.4,41.65,36.19,5,73.69,1.17,110-2.5,27.27-2.76,55.47-5.61,82.88-4.72,58.23,2.15,117.8,9.14,175.41,15.9l27.05,3.15Z"/><path class="cls-3" d="M898.4,305.23c-78.22-8.51-148-14.44-213.27-18.13-26.5-1.47-53.78-.61-80.15.23-36.24,1.15-73.72,2.33-110-2.5-39.57-5.32-78-20.43-115.16-35-26.8-10.53-54.51-21.43-82.39-28.54-49.79-12.68-103.62-11.91-155.68-11.16-28.82.41-58.62.84-89.53-1.21l.06-1c30.87,2.05,60.66,1.62,89.46,1.21,52.12-.75,106-1.52,155.94,11.19,27.94,7.13,55.68,18,82.51,28.58,37.11,14.59,75.48,29.68,114.92,35,36.18,4.82,73.61,3.64,109.81,2.49,26.39-.84,53.69-1.7,80.24-.22,65.3,3.69,135.08,9.61,213.32,18.12Z"/><path class="cls-3" d="M897.68,325.4c-61.13-6.31-123.7-9.65-184.21-12.88-75.12-4-152.81-8.15-228.5-18-38.42-5-76.35-16.13-113-26.89-29.38-8.62-59.76-17.53-90.17-23.23-49.11-9.12-100.39-10.76-150-12.34-28.64-.92-58.26-1.86-87-4.24l.08-1c28.72,2.38,58.32,3.33,87,4.24,49.63,1.58,100.94,3.22,150.13,12.35,30.47,5.71,60.87,14.63,90.27,23.26,36.65,10.75,74.55,21.87,112.89,26.86,75.65,9.86,153.32,14,228.42,18,60.53,3.23,123.11,6.57,184.26,12.89Z"/><path class="cls-3" d="M903.55,346.35c-35.94-3.39-72.62-5.13-108.09-6.81-41.61-2-84.63-4-126.81-8.74C634,326.9,598.91,321.68,565,316.62c-27.56-4.1-56.06-8.34-84.2-11.86-36.61-4.53-73.53-11.58-109.24-18.39C340.79,280.51,309,274.44,277.57,270c-51-7.36-103.29-11.62-153.86-15.74-27.19-2.21-55.3-4.5-86.42-7.58l.1-1c31.11,3.08,59.22,5.37,86.4,7.58,50.59,4.12,102.9,8.38,153.93,15.75,31.45,4.44,63.24,10.5,94,16.37,35.69,6.81,72.6,13.85,109.17,18.38,28.15,3.52,56.66,7.76,84.23,11.87,33.94,5.05,69,10.27,103.65,14.17,42.15,4.72,85.15,6.76,126.74,8.73,35.49,1.68,72.18,3.42,108.14,6.82Z"/><path class="cls-3" d="M903.06,366.75c-34.37-3-69.57-4-103.62-4.93-49.52-1.41-100.71-2.86-150.38-10.38-28.46-4.31-56.88-11.36-84.36-18.18-31-7.68-62.94-15.61-95.06-19.65C390.31,303.55,309.36,295.15,231.09,287c-66.05-6.85-134.34-13.93-201.33-22l.12-1c67,8.05,135.27,15.14,201.31,22,78.28,8.12,159.23,16.51,238.58,26.58,32.17,4,64.2,12,95.17,19.67,27.46,6.81,55.85,13.85,84.27,18.16,49.61,7.51,100.77,9,150.25,10.37,34.07,1,69.29,2,103.68,4.93Z"/><path class="cls-3" d="M909.73,388.72c-34.6-2.9-70.38-3.3-105-3.69-53.86-.6-109.54-1.22-162.68-11.24-27.52-5.19-54.48-14.69-80.55-23.87-30.73-10.83-62.5-22-95.3-26.18-38.7-5-78.73-4.2-117.44-3.47-26.77.51-54.45,1-81.39-.34-51.23-2.57-102.89-12.14-152.85-21.39C85.69,293.19,55.87,287.67,23.27,283l.14-1c32.62,4.7,62.45,10.23,91.3,15.57,49.93,9.25,101.55,18.81,152.72,21.38,26.91,1.37,54.57.85,81.32.34,38.75-.74,78.81-1.49,117.59,3.48,32.9,4.16,64.73,15.38,95.51,26.22,26,9.18,52.95,18.66,80.39,23.84,53,10,108.7,10.62,162.51,11.22,34.62.39,70.43.79,105.07,3.69Z"/><path class="cls-3" d="M912.14,409.74c-34.86-2.79-71.42-2.59-106.77-2.4-59.43.32-120.89.66-178-12.91-25.69-6.05-50.36-17.27-74.22-28.11-29.92-13.59-60.85-27.65-93.9-31.55-38.59-4.62-78.36-.46-116.82,3.56-28.63,3-58.23,6.09-87.14,5.54-49.49-.85-99.55-12.59-148-23.95C78.63,313.19,49,306.23,17,301.17l.16-1c32,5.07,61.66,12,90.39,18.77,48.36,11.34,98.37,23.07,147.75,23.92,28.85.55,58.42-2.54,87-5.53,38.51-4,78.33-8.2,117-3.56,33.2,3.91,64.21,18,94.2,31.63,23.81,10.82,48.44,22,74,28,57,13.53,118.38,13.2,177.75,12.88,35.38-.19,72-.39,106.86,2.4Z"/><path class="cls-3" d="M913.65,430.4c-35.17-2.72-72.61-2.08-108.82-1.46-62.59,1.06-127.31,2.17-186.13-13.41-25.64-6.77-49.67-19.85-72.91-32.5-29.09-15.84-59.17-32.21-92.48-36.16-38.4-4.51-77.68,2.68-115.66,9.63-29,5.31-58.95,10.8-88.36,11.05l-2.4,0c-48.39,0-97.3-13.4-144.64-26.37-29-7.94-59-16.16-90.49-21.36l.16-1c31.52,5.21,61.55,13.44,90.59,21.39,48.05,13.16,97.74,26.8,146.77,26.31,29.32-.25,59.25-5.73,88.19-11,38-7,77.4-14.17,116-9.64,33.5,4,63.67,20.39,92.84,36.27,23.18,12.62,47.16,25.67,72.69,32.41,58.68,15.55,123.33,14.45,185.86,13.38,36.22-.62,73.69-1.26,108.9,1.46Z"/><path class="cls-3" d="M914.58,451.05c-45.16-3.49-91-4.12-135.35-4.74q-15.5-.22-31-.47c-9.31-.14-19-.09-28.43,0-36.1.18-73.45.36-107.6-9.18-25.89-7.27-49.5-21.82-72.33-35.89-28.29-17.44-57.54-35.47-91.11-39.46-38.65-4.55-77.56,4.9-115.2,14-29.15,7.09-59.31,14.41-89.11,15.16-48.47,1.28-97.53-13.61-144.95-28-29.64-9-60.3-18.3-91.63-23.67l.17-1c31.39,5.38,62.08,14.69,91.75,23.69,47.35,14.37,96.28,29.23,144.63,28,29.7-.75,59.8-8.06,88.91-15.13,37.72-9.16,76.73-18.63,115.55-14.05,33.79,4,63.14,22.1,91.52,39.6,22.77,14,46.31,28.55,72.07,35.78,34,9.5,71.29,9.32,107.33,9.14,9.4-.05,19.13-.1,28.44,0q15.5.27,31,.47c44.36.62,90.22,1.25,135.41,4.74Z"/><path class="cls-3" d="M913.69,471.34c-48.22-3.92-97.31-4.4-144.79-4.86q-12-.12-23.93-.26c-10.06-.15-20.17-.06-30.87,0-35.85.33-72.91.67-106.49-8.85-26.35-7.45-49.73-23-72.35-38-27.6-18.3-56.13-37.22-90-41.24-38.57-4.55-76.87,6.08-113.91,16.36-29.4,8.17-59.81,16.61-90.32,17.49-47.73,1.46-95.55-13.85-141.79-28.64-30.53-9.77-62.1-19.88-93.75-25l.16-1c31.72,5.16,63.33,15.27,93.9,25.05,46.16,14.78,93.89,30.07,141.45,28.6,30.39-.88,60.74-9.3,90.08-17.45,37.13-10.31,75.53-21,114.3-16.39,34.08,4,62.72,23,90.42,41.4,22.55,14.95,45.87,30.41,72.07,37.82,33.43,9.48,70.42,9.14,106.2,8.81,10.71-.1,20.82-.19,30.89,0q12,.15,23.93.26c47.5.46,96.6.94,144.86,4.87Z"/><path class="cls-3" d="M911.57,491.07c-47.29-4-95.48-4.26-142.07-4.51q-13.08-.06-26.15-.16c-9.07-.06-18.13.05-27.73.16-36.74.45-74.71.91-109.28-8.74-26.56-7.41-50.09-23-72.85-38.13-27.54-18.27-56-37.18-89.83-41.3-38.71-4.68-76.94,6.11-113.9,16.55-29.41,8.3-59.81,16.89-90.37,17.69-47.27,1.27-94.33-14-139.82-28.71-31.11-10.09-63.27-20.52-95-25.44l.16-1c31.81,4.94,64,15.38,95.16,25.48,45.41,14.72,92.36,30,139.49,28.66,30.43-.8,60.77-9.37,90.12-17.65,37.06-10.47,75.39-21.29,114.29-16.58,34,4.15,62.62,23.12,90.26,41.46,22.69,15.06,46.16,30.63,72.57,38,34.43,9.61,72.33,9.16,109,8.71,9.18-.11,18.67-.22,27.76-.16q13.07.11,26.14.16c46.62.25,94.82.51,142.15,4.51Z"/><path class="cls-3" d="M722.46,512.35c-39.72,0-79.1-2.74-116-13.06-26.68-7.41-50.43-22.9-73.4-37.88-27.89-18.19-56.73-37-90.78-41.15-38.66-4.67-76.86,6-113.81,16.38-29.32,8.21-59.63,16.7-90.07,17.51-47,1.17-93.42-14.26-138.32-29.18-31.2-10.36-63.47-21.08-95.49-26.05l.16-1c32.1,5,64.4,15.71,95.65,26.09,44.82,14.88,91.18,30.28,138,29.12,30.31-.81,60.56-9.28,89.82-17.48,37-10.37,75.35-21.1,114.2-16.4,34.28,4.18,63.22,23.05,91.21,41.3,22.9,14.94,46.59,30.38,73.12,37.76C664.56,514.5,728.52,512,790.38,509.58c39.07-1.53,79.47-3.11,117.33.16l-.09,1c-37.79-3.27-78.16-1.69-117.2-.16C767.91,511.46,745.13,512.35,722.46,512.35Z"/><path class="cls-3" d="M712.57,533.49c-35.78,0-71.2-2.64-104.67-11.81-26.95-7.36-51.14-22.7-74.52-37.53-28.37-18-57.71-36.59-91.94-40.76-38.6-4.67-76.74,5.89-113.62,16.11-29.18,8.08-59.35,16.44-89.65,17.26-46.57,1.16-92.29-14.6-136.51-29.86C70.39,436.12,38.05,425,5.8,420L6,419c32.34,5,64.71,16.19,96,27,44.14,15.23,89.82,31,136.16,29.8,30.18-.82,60.29-9.16,89.41-17.22,37-10.25,75.21-20.84,114-16.15,34.46,4.21,63.89,22.87,92.35,40.92,23.33,14.79,47.45,30.09,74.25,37.4,56.27,15.43,118.13,12.32,178,9.32,38.77-1.94,78.85-4,116.55-.8l-.09,1c-37.63-3.16-77.68-1.15-116.41.8C761.81,532.25,737.1,533.49,712.57,533.49Z"/><path class="cls-3" d="M702.11,555.16c-31.29,0-62.23-2.47-91.71-10.36-27.27-7.29-51.93-22.49-75.78-37.19-29-17.86-58.93-36.32-93.5-40.43C402.68,462.65,364.74,473,328.06,483c-29.16,7.94-59.3,16.15-89.59,16.89-46.22,1.08-91.31-15.13-134.92-30.81-31.08-11.17-63.21-22.73-95.43-27.89l.16-1c32.31,5.18,64.48,16.75,95.6,27.94,43.53,15.65,88.52,31.83,134.56,30.75,30.17-.74,60.26-8.93,89.35-16.85,36.78-10,74.82-20.37,113.44-15.81,34.79,4.13,64.85,22.65,93.91,40.57,23.79,14.66,48.39,29.82,75.51,37.08,54.5,14.57,114,10.59,171.6,6.75,38-2.54,77.37-5.17,114.5-2.32l-.07,1c-37.06-2.85-76.36-.22-114.36,2.32C755.77,553.36,728.81,555.16,702.11,555.16Z"/><path class="cls-3" d="M693.55,577.13c-25.59,0-50.95-2-75.47-7.82-29.19-6.89-55.7-22.51-81.34-37.61-29.81-17.56-60.63-35.72-95.65-40.07C403.4,486.84,366,497.1,329.79,507c-27.89,7.65-56.73,15.56-85.58,16.57-47.75,1.78-93.75-15.41-138.23-32C75.1,480,43.17,468.08,11,462.62l.17-1c32.3,5.47,64.28,17.42,95.2,29,44.39,16.59,90.31,33.74,137.84,32,28.74-1,57.52-8.9,85.36-16.53,36.28-9.95,73.8-20.23,111.69-15.42,35.22,4.38,66.13,22.58,96,40.19,25.57,15.07,52,30.65,81.06,37.51,51.41,12.22,106.58,7.53,159.93,3,37-3.15,75.25-6.4,111.66-3.91l-.06,1c-36.34-2.49-74.56.76-111.51,3.9C750.3,574.71,721.78,577.13,693.55,577.13Z"/><path class="cls-3" d="M685.76,599.7c-21.64,0-43.09-1.73-64-6.5-29.72-6.78-57-22.23-83.31-37.17-30.45-17.28-62-35.14-97.27-39.53-37.52-4.65-74.68,5.37-110.62,15.07-27.83,7.51-56.62,15.27-85.46,16.21-47.27,1.56-92.44-16.14-136.12-33.27-30.72-12-62.48-24.5-94.69-30.13l.17-1c32.31,5.65,64.12,18.13,94.88,30.19C153,530.68,198,548.36,245.1,546.78c28.72-.93,57.45-8.68,85.23-16.18,36-9.72,73.29-19.77,111-15.09,35.51,4.41,67.09,22.32,97.64,39.65,26.28,14.91,53.46,30.32,83,37.07,49.27,11.24,101.79,5.55,152.58,0,35.93-3.89,73.09-7.91,108.67-5.86l-.06,1c-35.49-2-72.61,2-108.51,5.86C745.31,596.46,715.35,599.7,685.76,599.7Z"/><path class="cls-3" d="M679.07,623.16a257.89,257.89,0,0,1-48.79-4.31c-31.88-6.17-61-22.18-89.16-37.66-31.31-17.22-63.7-35-99.84-39.19-37.62-4.33-74.73,5.23-110.62,14.47-29.07,7.49-59.14,15.23-89.39,15.59-45.55.58-88.79-17.37-130.6-34.73-30.09-12.5-61.2-25.42-93-31.35l.19-1c31.87,6,63,18.9,93.18,31.41,41.71,17.32,84.86,35.2,130.2,34.66,30.13-.36,60.13-8.09,89.15-15.56,36-9.26,73.17-18.85,111-14.49,36.34,4.18,68.81,22,100.21,39.3,28.09,15.45,57.14,31.42,88.87,37.56,46,8.84,94,2.26,140.49-4.11,34.74-4.76,70.67-9.68,105.44-8.12l0,1c-34.7-1.56-70.56,3.36-105.25,8.11C740.76,618.91,709.76,623.16,679.07,623.16Z"/></g><line class="cls-4" x1="17.65" y1="507.23" x2="773" y2="507.23"/></svg>