<svg width="24" height="11" viewBox="0 0 24 11" fill="none" xmlns="http://www.w3.org/2000/svg">
<path d="M7.126 4.08C7.126 1.91 5.992 0.384 3.948 0.384C1.918 0.384 0.42 1.91 0.42 4.318C0.42 6.936 1.862 8.196 3.794 8.196C5.32 8.196 6.734 7.398 7.028 5.606H5.768C5.6 6.67 4.816 7.272 3.85 7.272C2.758 7.272 1.834 6.614 1.722 4.654H7.098C7.126 4.388 7.126 4.192 7.126 4.08ZM3.92 1.308C5.138 1.308 5.796 2.19 5.908 3.73H1.736C1.876 2.148 2.744 1.308 3.92 1.308ZM14.9636 2.554C14.8516 1.252 13.9416 0.384 12.3176 0.384C11.5616 0.384 11.0156 0.51 10.3856 1L9.92359 1.854V0.58H8.71959V8H9.92359V4.738C9.92359 2.204 10.9036 1.336 12.0656 1.336C13.2136 1.336 13.6896 1.98 13.7596 2.848C13.7876 3.226 13.7876 3.534 13.7876 3.912V8H14.9916V3.828C14.9916 3.226 14.9916 2.932 14.9636 2.554ZM23.5004 0.58H22.2964V1.602L21.8064 0.874C21.4284 0.566 20.6444 0.384 20.0284 0.384C18.1104 0.384 16.4024 1.658 16.4024 4.402C16.4024 6.572 17.6064 8.196 19.7764 8.196C20.5324 8.196 21.3164 7.958 21.7364 7.608L22.2964 6.81V6.936C22.2964 7.16 22.2964 7.398 22.2824 7.748C22.2264 9.176 21.4284 10.016 19.9584 10.016C18.6844 10.016 17.9564 9.386 17.8584 8.476L17.8444 8.35H16.6264L16.6404 8.49C16.7944 10.058 17.8444 10.94 19.9584 10.94C22.1004 10.94 23.4164 9.792 23.4864 7.622C23.5004 7.216 23.5004 6.642 23.5004 6.18V0.58ZM19.9584 7.272C18.4744 7.272 17.7184 5.942 17.7184 4.262C17.7184 2.316 18.7264 1.308 20.0284 1.308C21.0924 1.308 22.2964 2.036 22.2964 3.954V4.36C22.2964 6.488 21.1904 7.272 19.9584 7.272Z" fill="#949393"/>
</svg>
