<svg id="Lager_1" data-name="Lager 1" xmlns="http://www.w3.org/2000/svg" xmlns:xlink="http://www.w3.org/1999/xlink" viewBox="0 0 376 76"><defs><style>.cls-1,.cls-3{fill:none;}.cls-2{clip-path:url(#clip-path);}.cls-3{stroke:#282828;stroke-miterlimit:10;}</style><clipPath id="clip-path"><rect class="cls-1" width="376" height="76"/></clipPath></defs><title>Rityta 2 kopia 3</title><g class="cls-2"><path class="cls-3" d="M527.65-573c7.56,49.42,43.69,90.24,48.84,139.42,5.08,48.5-16.51,97.92-23.36,145.31-7.76,53.66,6.24,110.45,13,163.67,5.9,46.47,9.65,91.32,6.19,138-37.64,3.27-72.51,16.7-109.76,20.48C401.9,40,340,31.15,279.28,31.06c-48-.08-92.31,17.5-137.46,31.79-55.16,17.46-101.39,7.94-157.2-.41C-22.87,7.53-56.73-41.4-60.94-96.47c-3.36-44.06,17.77-85.69,23.21-128.75,6.14-48.52-16.22-90.33-32.85-134.4-8.56-22.69-15.62-45.49-14.91-70,.79-27.25,9.91-53.58,17.18-79.61,58.15-8.22,111.12-39.12,169.42-45.11,46.39-4.76,90.64,14.66,136.61,15.9,48.16,1.29,91.6-23.23,136-38.21C427.61-594.78,473.53-582.25,527.65-573Z"/><path class="cls-3" d="M-44.19-513.22c-6.6,25.64-15,51.49-16.27,78.13-1.27,25.93,6.06,50,15.44,73.85,16.74,42.62,39.68,84,34.18,131.25-5,43-27.45,83.81-24,127.77C-30.33-44.75-.66,8.67,6.89,66"/><path class="cls-3" d="M-31.77-516.24C-38-490.43-46-464.45-47.36-437.77c-1.28,26,5.8,49.88,15.24,73.79,16.76,42.42,40.66,84.05,35.33,131.21C-1.6-190.3-24.33-150.54-21.57-107.1-17.8-47.65,10.45,8.44,18,67.65"/><path class="cls-3" d="M-19.2-519.76c-12,53.32-21.29,97.39-.84,150,16.77,43.12,43,86.11,37.61,134.09C12.76-192.74-10.64-153.55-8-109.55-4.39-48.88,21.72,8.58,29,69"/><path class="cls-3" d="M-6.52-523.68c-11.07,53.32-20.54,98.35-.15,150.75,16.73,43,43.91,86.36,38.63,134.26-4.67,42.41-28.51,80.59-26.6,124C8.11-51.94,32.91,8,40.08,70.38"/><path class="cls-3" d="M6.21-527.85c-10.09,53.34-19.72,99.43.57,151.69,16.67,42.91,44.78,86.7,39.58,134.54-4.56,41.91-28.91,79.14-27.68,122C20.53-55,44.13,7.24,51.19,71.49"/><path class="cls-3" d="M19-532.15c-8.9,52-19.06,99,.21,150,16.57,43.92,46.54,88.8,41.39,137.65C56.27-203.86,31.71-168,31.93-126.65,32.27-59.58,55.32,6,62.39,72.68"/><path class="cls-3" d="M31.64-536.45c-8,52.12-18.25,100.21.82,151.19,16.45,44,47.16,89.28,42.13,138.14-4.14,40.29-29.33,75.36-29.67,116.35C44.37-62.41,66.46,4.92,73.56,72.84"/><path class="cls-3" d="M44.24-540.62c-7.72,56.26-17.15,106.12,4.45,160.54,16.27,41,44.38,84.68,39.69,130.6-4,39.23-28.91,73.16-30.82,112.82-1.47,30.51,6.26,63.32,10.88,93.23C74.54-4,80.6,32.84,84.78,72.53"/><path class="cls-3" d="M56.71-544.51c-6.92,56.27-16.63,107.35,4.7,161.76,16.14,41.19,44.71,85.18,40.19,131.23-3.85,39.17-29.32,72.67-31.71,112.16C68-108.84,75.71-75.71,80.06-45.75c5.81,40,11.6,77.45,16,117.63"/><path class="cls-3" d="M69-548c-6.24,56.26-16.32,108.51,4.68,162.93,16,41.45,44.83,85.68,40.54,131.91-3.65,39.29-29.69,72.57-32.5,112-2.17,30.41,5.53,63.74,9.75,93.62C97.12-7.6,103,30.57,107.5,70.62"/><path class="cls-3" d="M81.09-550.95c-5.69,56.22-16.25,109.56,4.34,164,15.78,41.72,44.87,86.22,40.62,132.62-3.61,39.47-28.91,73.28-32.18,113-2.5,30.27,5.11,63.31,9.31,93.08,5.54,39.26,11.37,77.61,15.89,117"/><path class="cls-3" d="M92.93-553.22c-5.34,56.38-16.31,110.28,3.9,164.92,15.44,41.75,43.71,87.46,39.47,133.58-3.65,39.64-26.64,74.67-29.94,114.51-2.49,30,4.71,62.24,8.85,91.75,5.37,38.22,11.1,76.38,15.54,114.72"/><path class="cls-3" d="M104.46-554.62c-5.06,57-14.66,110.48,4.3,165.85C123.21-346.6,149-299.89,145.25-254,142-214.22,122-177.85,119.08-137.85c-2.13,29.56,4.4,60.69,8.45,89.83,5.13,36.87,10.61,73.69,14.88,110.68"/><path class="cls-3" d="M116-555c-3.91,53.32-12.41,106,2.61,158.26C131.72-351,156.23-301.08,153-252.52c-2.69,40.9-19.57,79.31-21.14,120.46C129.49-69.13,147-3.54,154.15,58.84"/><path class="cls-3" d="M127.62-554.63c-2.81,53.52-8.88,106.22,4,158.84C143-349,162-299.07,160-250.3c-1.7,41.16-14.64,80.87-15.11,122.24-.69,60.83,14.24,122.68,21.05,183"/><path class="cls-3" d="M139.36-553.56c-1.52,54.7-4.37,108.14,6.22,162.11,9.22,47,21.5,95.72,20.74,143.87-.67,42.36-9.64,84-8.39,126.53C159.62-63.5,171.45-6.11,177.77,51"/><path class="cls-3" d="M151.13-552c0,54.63.46,108.24,8.06,162.4,6.72,47.91,12.6,96.54,12.93,145,.3,42.81-3.72,85.35-1.12,128.19,3.31,54.81,12.75,109.09,18.61,163.65"/><path class="cls-3" d="M162.91-550C166-447,175-344.58,177.7-241.5c2.52,96,13.84,189.78,23.75,285.18"/><path class="cls-3" d="M174.65-547.82C178-492.7,186-437.5,187.19-382.32c1,48-5.88,95.93-3.89,143.83C187.17-145.27,204-52.4,213.25,40.38"/><path class="cls-3" d="M186.34-545.55c5,54.68,16.75,110.31,14.85,165.31-1.66,48.1-14.43,96.41-12,144.51,2.19,43.53,12.74,86.31,19.83,129.17,7.83,47.35,11.39,96.2,16,144"/><path class="cls-3" d="M197.94-543.36c6.44,53.2,21.45,108.21,17.46,162-3.64,49.05-22.57,98.66-19.83,148,2.39,43,16.78,85,25.24,126.93,9.27,46,11.5,94.58,15.82,141.34"/><path class="cls-3" d="M209.44-541.4c7.78,52.6,26.09,108.08,20,161.46-5.58,49-29.48,98.61-26.65,148.25,2.48,43.39,20.58,85.17,30.11,127.17,10.06,44.31,11.2,92,15.23,137.26"/><path class="cls-3" d="M220.84-539.8c8.89,51.94,30,107.8,22.42,160.8-7,49-34.95,98.15-32.13,148.23,2.46,43.68,23.46,85,33.71,127C255.42-60.49,255.59-13,259.6,31.34"/><path class="cls-3" d="M232.12-538.73c9.72,51.33,33,107.33,24.57,160-7.9,49.18-38.61,97.28-35.82,147.92,2.42,43.84,25.09,84.34,35.7,126.3,11,43.32,11.29,91.12,15.7,135.55"/><path class="cls-3" d="M243.3-538.33c10,49.53,34.41,104.84,26.91,156-7.48,50.9-40.39,97.88-37.75,150.31C234.73-187.23,259-146.31,270-103.44c11,43.07,11.84,90.37,16.37,134.54"/><path class="cls-3" d="M254.37-538.75C264.84-488,289.7-433,281.18-380.44c-7.91,48.82-38.25,95.46-35.77,146,2.17,43.89,26.34,84.53,38.22,126.07,12.74,44.52,13.29,94,17.93,139.88"/><path class="cls-3" d="M265.7-540.23c10.44,50.79,34.3,105.88,26.39,158.37-7.24,48-34.54,94.4-32.18,143.8,2.12,44.19,26.85,85.17,39.33,126.8C312.89-65.72,313.18-15.09,317.69,32"/><path class="cls-3" d="M277.18-542.57c10.06,51.14,32.39,106.35,25.52,159-6.14,47.05-29.65,92.91-27.19,141.05,2.27,44.68,27.27,86,40.33,127.94,14.55,46.77,14.39,98.74,18.64,147.23"/><path class="cls-3" d="M288.69-545.6c9.51,51.8,29.8,107,24.34,160.2-4.72,46-23.89,91.09-21.12,137.82,2.68,45.33,27.62,86.91,41.23,129.4C348.56-70,347.81-16.63,351.67,33.38"/><path class="cls-3" d="M300.24-549.2c9,53.63,27.08,109.83,22.72,164.62-3.5,43.92-17,87.07-14.06,131.46,3.16,47.13,28.88,89.73,42.92,134.05C367.21-70.49,365.71-15.94,369,34.47"/><path class="cls-3" d="M311.83-553.23c8.2,54.76,23.28,110.87,21.1,166.56-1.66,42.7-10.5,84.93-6.83,127.8,4.1,47.92,29.08,90.77,43.61,135.9,16.1,50,13.8,105.59,16.55,157.56"/><path class="cls-3" d="M323.46-557.58c7.22,55.1,18.64,110.39,19.28,166.12.49,42.35-4.16,84.52.54,126.8,5.54,49.72,30.26,93.6,45.1,140.75C404.3-73.37,401.05-17.4,403.15,35"/><path class="cls-3" d="M335.13-562.11c6.33,56.18,14.46,112.12,17.2,168.64,2,41.2,2.45,82.21,8,123.17,6.77,50.39,30.22,94.69,45.39,142.69,16.39,51.88,12.29,109,13.73,162.76"/><path class="cls-3" d="M346.83-566.69c9.27,97.17,15.06,194.63,30,291.12,7.74,49.92,29.05,93.84,44.4,141.58,17.46,54.28,12.77,112.75,13.56,169"/><path class="cls-3" d="M358.57-571.19c4.55,57,6.72,114.61,12.64,171.48,4.21,40.41,14.54,79.5,21.53,119.4,8.81,50.28,28.66,94.82,44.08,143.23C454.44-81.73,449-22.66,449.09,34.65"/><path class="cls-3" d="M370.32-575.45c3.83,57.71,3.6,116.71,10.59,174.08,4.87,40,19.41,77.63,26.83,117,9.53,50.55,28,95.74,43.34,144.69C468.68-83.49,462.6-24.13,462,33.91"/><path class="cls-3" d="M572.83,6.78c-37.4,2.17-73,9.4-110.11,13.14-61.14,6.17-123.18.28-184.48.9-47.34.49-92.88,14.83-138.08,27.61-25.27,7.14-48.75,12.7-75.25,11.74-27.47-1-54.63-6.23-81.86-9.66"/><path class="cls-3" d="M573.38.28c-36.49,1-71.1,1.35-107.45,5.24-62.64,6.7-126,3.88-188.84,5.4-47.86,1.16-95.32,11.89-141.74,22.9-53.22,12.63-100.72,9.4-154.8,4.5"/><path class="cls-3" d="M573.9-6.39c-36.8-.09-70.68-6.22-107.65-2.29C403.05-2,339.53-1.4,276.09,1.29a1030.08,1030.08,0,0,0-142.9,16.4c-53,9.79-102.1,10.77-155.91,8.25"/><path class="cls-3" d="M574.34-13.47C537-14.56,504.5-26.91,466.56-22.84,402.83-16,339.05-12.14,275.09-8.19c-48,3-96.46,3.14-144.23,9.2C77.87,7.72,27,13.3-26.6,13.46"/><path class="cls-3" d="M574.61-21.22c-38.12-1.9-68.69-20-107.84-15.64-64.21,7.09-128.26,14-192.68,19.23C225.54-13.7,177-19.25,128.45-16,75.13-12.48,22.61-2-30.92.94"/></g></svg>