<svg id="Lager_1" data-name="Lager 1" xmlns="http://www.w3.org/2000/svg" xmlns:xlink="http://www.w3.org/1999/xlink" viewBox="0 0 25 388"><defs><style>.cls-1,.cls-3{fill:none;}.cls-2{clip-path:url(#clip-path);}.cls-3{stroke:#fff;stroke-miterlimit:10;}</style><clipPath id="clip-path"><rect class="cls-1" width="25" height="388"/></clipPath></defs><g class="cls-2"><path class="cls-3" d="M35.5-195.71C28.4-146-12-103.45-8.55-52.35-5.11-1,19.53,47.06,19.91,98.68c.44,58.62-13.24,117.5-17.6,175.9C-.64,313.93,6.6,351.86,5.74,391c35.78,2.32,64.61,23.41,100.78,23.3,58.89-.19,116.93-17,175.6-20.83,46.22-3,87.81,15.49,132.27,24.52,51.86,10.53,97.34-9.25,147.26-20.12,6.53-53.74,43-103.68,40.24-158.4-2.35-46.71-28.06-89.6-26.1-136.83,2-48.1,31.45-89.66,40.17-136.32,10-53.32-22-102.26-24.3-154.87-52.38-3.56-101.09-32.23-153.77-31.18-43.12.85-81.77,23.95-124.27,28.44-45.74,4.83-88.39-16.79-132.11-26.19C129.43-228.63,85.3-207.54,35.5-195.71Z"/><path class="cls-3" d="M66.92-204.15c-5.2,52.54-32.41,101.56-33,154.4C33.3-1.14,48.1,46.35,47.53,94.89c-.7,59-17.56,116.93-21.5,175.7-2.8,41.72,6.09,82.18,6,123.75"/><path class="cls-3" d="M56.49-201c-6.08,51.81-39,99.54-37.25,152C20.84.07,38.54,47.36,38.65,96.46c.13,58.22-15.31,116.06-19.44,174.07-2.94,41.29,5.54,81.1,5.22,122.2"/><path class="cls-3" d="M46-198.15C39.33-147.6,2.29-102.38,5-50.83,7.72-.52,29.11,47.28,29.51,97.75,30,156.24,15.42,214.73,11.3,273c-2.84,40.09,5,78.69,4.46,118.59"/><path class="cls-3" d="M6,380.15c35.07,2.82,65.4,21.42,100.87,21.17,58.92-.4,117.33-15.59,176.05-19.5,45.35-3,88.54,14.16,132.52,22.38,51.47,9.61,97.69-8.44,147.64-18.44"/><path class="cls-3" d="M5.87,370.76c35.57,2.76,68.21,17.48,104.16,16.79,58-1.1,115.55-13.53,173.49-16.71,45.91-2.51,91.14,12,136.22,18.61,50,7.36,96.9-7.83,145.83-16"/><path class="cls-3" d="M5.43,362.52c35.05,2.15,69.17,11.61,104.4,11,58.27-1,116.2-10.74,174.42-13.18,45.75-1.91,91.91,8,137.31,12.7,49.92,5.15,98-6,147.37-12.11"/><path class="cls-3" d="M4.77,355.11c34.83,1.16,69.82,4.54,104.67,4.11,58.57-.72,117-7.4,175.51-8.94,46.06-1.22,92.67,3.18,138.67,5.5,50.12,2.52,99.39-3.65,149.31-7.37"/><path class="cls-3" d="M4,348.17c93.82-.2,187.91-6.58,281.83-7.7q145.79-1.75,291.56-4.61"/><path class="cls-3" d="M3.69,341.36c36.72-1.54,70.53-11.45,107.61-11.13,58.4.5,116.8.41,175.2.59,46.64.14,92.32-7.68,138.73-10.89,52.06-3.6,104.72,1.75,156.8,3.41"/><path class="cls-3" d="M3.35,334.4c36.71-1.53,66.67-19.66,104.27-18.68,59.81,1.56,119.6,4.48,179.43,5.43,46.75.74,91.6-12.7,137.61-18.92,53.66-7.25,108.49,4.27,162,8.66"/><path class="cls-3" d="M2.84,327c20.24-1.34,34.26-9.94,52.29-17.51,16.95-7.1,33.91-8.8,52.1-8,60.19,2.52,120.29,8.45,180.52,9.92,47.78,1.16,92.7-18,139.08-26.72,54.36-10.25,110.35,7.1,164.28,13.94"/><path class="cls-3" d="M2.35,318.75C23,317,36,306.71,53.6,297.54c16.05-8.39,32.3-10.93,50.33-10.34,61.7,2,123,11.88,184.7,14,49.62,1.71,95.53-23.87,143.13-34.36C485.49,255,542.19,277.66,595.08,286.3"/><path class="cls-3" d="M1.91,309.52c21.38-2,33.85-14.08,51.27-24.48,15.89-9.48,32.29-12.51,50.74-11.54,62,3.27,123.42,14.85,185.44,17.08,50.61,1.81,96.2-28.14,144.16-40.09,54.19-13.52,111.93,13.62,164.85,23.7"/><path class="cls-3" d="M1.63,299c21.9-2,34.19-15.51,51.47-26.67,15.89-10.27,32.31-13,51.11-12,62.19,3.3,123.64,17,185.89,19,51.58,1.7,96.32-31.23,144.81-44,54.66-14.37,112.86,16,165.85,26.87"/><path class="cls-3" d="M1.51,286.68c22-2,34.78-16,52-27.24,16-10.41,32.5-12.76,51.45-11.86,62.24,2.93,123.59,18.06,185.9,19.67,52.2,1.35,95.76-32.64,144.75-45.38,55.07-14.32,113.16,17.38,166.34,28.37"/><path class="cls-3" d="M2.47,272.42c21.71-2.27,35.05-15.9,52.55-26.64,16.3-10,33-12.34,52-11.43,62.13,3,123.27,19.28,185.49,20.52,51.55,1,94-32.77,142.39-45.15,54.88-14.05,113.73,17.32,166.87,28"/><path class="cls-3" d="M3.86,256.75c21.55-2.34,35.63-15.48,53.52-25.62,16.7-9.46,33.76-11.69,52.83-10.68,61.94,3.31,122.79,20.89,184.86,22,50.26.87,90.88-32.58,138.06-44.48,54.52-13.75,114.24,17,167.24,27.09"/><path class="cls-3" d="M5.57,240c21.5-2.31,36.47-14.84,54.87-24.26,17.18-8.81,34.64-10.9,53.84-9.7,61.63,3.83,122.23,23.24,184.06,23.87,48.76.49,86.35-32.66,132.19-43.46C485.08,173.6,544.74,202.81,598,212.22"/><path class="cls-3" d="M8.05,222.44C30,220.19,45.61,208,65,199.36c18.57-8.29,37.16-9.53,57.19-7.84,60.14,5.09,119.29,24.84,179.76,25.77,45.71.7,80.21-30.16,122.71-41.41,54.39-14.4,116.78,14.81,170.29,23.46"/><path class="cls-3" d="M10.5,204.45c22.06-2.08,38.43-13.43,58.43-21.26,19.09-7.48,38.13-8.59,58.35-6.61,59.8,5.87,118.56,27.1,178.77,28.15,43.43.75,74.85-29.38,115.07-40,53.72-14.18,117.19,14,170.34,21.66"/><path class="cls-3" d="M13.14,186.27c22.79-3.15,39.52-12.59,61-19.72,20.51-6.81,40.48-7.19,61.81-4.55,58.14,7.2,115.71,29,174.49,30.27,41.69.92,70.64-30,109.38-39.11,53.14-12.43,115.28,13.48,168,20.23"/><path class="cls-3" d="M15.15,168.42c43.92-5.47,76.92-27.2,122.73-21.62,59,7.18,116.84,31.63,176.45,32.81,40.5.8,66.16-30.56,103.91-38.14,52.53-10.55,113.73,13.06,166,18.92"/><path class="cls-3" d="M17.17,151.05c44.38-5,79.53-25.1,125.43-18.92,58.59,7.89,116.15,33.78,175.53,35,38.3.75,60.87-29.64,96.39-36.72,23.64-4.71,50.67.51,74.12,4,30.78,4.54,61.3,10.06,92.28,13.08"/><path class="cls-3" d="M18.62,134.52c44.77-4.59,82.08-23.37,128.08-16.69,58.25,8.47,115.55,35.72,174.73,36.75,36.46.63,56.25-28.87,89.89-35.51,23.51-4.64,50.86.57,74.24,3.68,30.9,4.11,61.59,9.09,92.67,11.73"/><path class="cls-3" d="M19.53,119.12C63,114.83,102,97,146.39,103.4c59.32,8.54,117.61,38.26,177.9,38.85,34.06.33,51.49-27.45,82.48-34.32,23.81-5.27,50.94,0,74.79,2.84,31.62,3.8,63,8.45,94.81,10.87"/><path class="cls-3" d="M19.85,105.15c43.57-4.37,84.24-21.46,128.64-14.91C207.61,99,265.83,129.76,326,129.81c33.25,0,49.21-27.26,79.4-33.82,23.92-5.19,51.23.15,75.22,2.85,31.66,3.55,63.16,7.83,94.94,10.1"/><path class="cls-3" d="M19.87,92.21c43.61-4.57,85.62-20.87,130-14.17,58.66,8.87,116.93,39.7,176.73,39.27,32.82-.23,49.24-27.38,79.23-33.71,24-5.07,51.36.33,75.46,3,31.62,3.49,63.11,7.62,94.85,9.85"/><path class="cls-3" d="M18.58,78.74c44.2-4.29,88.48-19,133.12-12.17,57.43,8.78,115,38.39,173.59,37.67,32.93-.41,52-27.4,82.62-33.46,24.17-4.79,51.26.47,75.45,3.2,31.52,3.56,62.9,7.75,94.56,9.94"/><path class="cls-3" d="M16.29,64.74c46.8-3.62,94.28-16,141.19-8.6,54.36,8.64,109.18,35.12,164.7,34.3,34.88-.51,57.79-28,91.05-33.16,24.12-3.76,51.34,1.25,75.32,4.07C519.33,65,550,69.1,580.89,71.24"/><path class="cls-3" d="M13.27,50.36C62.61,47.85,114,37.65,163.1,45.78c51,8.44,103.22,31.87,155.42,30.79,35.65-.75,62.14-26.86,96.41-32.22,54.54-8.52,115.26,10.29,169.82,14.08"/><path class="cls-3" d="M9.76,35.73c51.16-1.07,105.09-8.43,155.88-.61,48.78,7.51,98.29,28.27,148.11,27.1,38-.89,68.65-26.4,105.6-31.43,55.13-7.51,114.85,10.86,169.9,14.73"/><path class="cls-3" d="M6,21c52.26.5,107.28-3.58,159.17,3.15,47.6,6.18,95,24.82,143.33,23.47,40-1.12,74.06-24.73,113.11-30.25,55.94-7.9,116.67,11.23,172.52,15.21"/><path class="cls-3" d="M2.25,6.24c53.89,2,109.16,1.78,162.81,7.08,46.15,4.55,91.47,21.2,138.18,19.82,43.81-1.3,82.61-25.6,125.85-29.81,56.07-5.45,114.23,12.23,170.06,16.25"/><path class="cls-3" d="M-1.29-8.39C55-4.81,111.64-1.87,167.76,2.78c43.6,3.62,86.37,17.32,130.41,15.86C345,17.09,387.62-6.44,434-10.31,490.39-15,548,2.52,604.05,6.62"/><path class="cls-3" d="M-4.38-22.78c59.07,5,118,10.53,177,15.06,40.44,3.1,80.24,13.52,121,12C344.23,2.32,391.1-21,441.46-24c55.68-3.33,111.77,13.7,167.14,17.75"/></g></svg>